<?xml version="1.0" encoding="utf-8"?>
<!-- Generator: Adobe Illustrator 22.0.1, SVG Export Plug-In . SVG Version: 6.00 Build 0)  -->
<svg version="1.1" id="Layer_1" xmlns="http://www.w3.org/2000/svg" xmlns:xlink="http://www.w3.org/1999/xlink" x="0px" y="0px"
	 viewBox="0 0 1400 1000" style="enable-background:new 0 0 1400 1000;" xml:space="preserve">
<style type="text/css">
	.st0{fill:#99DBFF;}
	.st1{fill:#FFFFFF;}
	.st2{fill:#605D5D;}
	.st3{fill:#57BD90;}
	.st4{fill:#7A7878;}
	.st5{fill:#FF684A;}
	.st6{fill:#E5E5E5;}
	.st7{fill:#FF5930;}
	.st8{fill:#8EC9FA;}
</style>
<g>
	<rect class="st0" width="1400" height="1000"/>
	<g>
		<g>
			<path class="st1" d="M1029.8,149.6c-2-24.4-23.5-44.6-48-45.5c-7-0.3-13.6,1-19.6,3.5c-5.9-18.2-22.9-31.3-43.1-31.3
				c-15.9,0-29.9,8.2-38,20.7c-3.2-0.9-6.5-1.3-9.9-1.3c-17.3,0-31.9,11.8-36,27.8c-14.8,4.9-25.4,18.9-25.4,35.3c0,0.1,0,0.2,0,0.2
				c0.1,11.6,5.5,32.1,21.2,32.1h173.4C1024.5,190,1030.8,161.3,1029.8,149.6z"/>
			<g>
				<path class="st2" d="M1000.2,225.6L987,212.3c-1.6-1.6-4.2-1.6-5.8,0c-1.6,1.6-1.6,4.2,0,5.8l5.9,5.9H924v-44.7
					c0-1.4-1.1-2.5-2.5-2.5h-3.8c-1.4,0-2.5,1.1-2.5,2.5v44.7h-64.6l5.9-5.9c1.6-1.6,1.6-4.2,0-5.8c-1.6-1.6-4.2-1.6-5.8,0
					l-13.3,13.3c-0.8,0.8-1.2,1.9-1.2,2.9c0,1.1,0.4,2.1,1.2,2.9l13.3,13.3c1.6,1.6,4.2,1.6,5.8,0c1.6-1.6,1.6-4.2,0-5.8l-6-6h67.2
					h3.8h65.7l-6,6c-1.6,1.6-1.6,4.2,0,5.8c1.6,1.6,4.2,1.6,5.8,0l13.3-13.3c0.8-0.8,1.2-1.9,1.2-2.9
					C1001.4,227.4,1001,226.4,1000.2,225.6z"/>
				<path class="st2" d="M918.8,152.9c-8.4,0-15.2,6.8-15.2,15.2c0,8.4,6.8,15.2,15.2,15.2c8.4,0,15.2-6.8,15.2-15.2
					C934,159.7,927.2,152.9,918.8,152.9z M918.8,176c-4.3,0-7.9-3.5-7.9-7.9s3.5-7.9,7.9-7.9c4.3,0,7.9,3.5,7.9,7.9
					S923.2,176,918.8,176z"/>
			</g>
		</g>
		<g>
			<path class="st3" d="M1204.2,290.3c-1.8-22.6-21.7-41.1-44.4-42c-6.4-0.2-12.6,0.9-18.1,3.2c-5.4-16.8-21.2-28.9-39.8-28.9
				c-14.7,0-27.6,7.6-35.1,19.1c-2.9-0.8-6-1.2-9.2-1.2c-16,0-29.4,10.9-33.3,25.7c-13.6,4.6-23.5,17.4-23.5,32.6c0,0.1,0,0.1,0,0.2
				c0.1,10.7,5.1,29.7,19.6,29.7h160.1C1199.3,327.6,1205.1,301.1,1204.2,290.3z"/>
		</g>
		<g>
			<path class="st1" d="M864.6,728.3H497.3c-5.4,0-9.8,4.4-9.8,9.8v152.3c0,5.4,4.4,9.8,9.8,9.8h367.3c5.4,0,9.8-4.4,9.8-9.8V738.1
				C874.4,732.7,870,728.3,864.6,728.3z"/>
			<g>
				<path class="st4" d="M512.3,774.4c-1.7,0-3-1.3-3-3v-23.3c0-1.7,1.3-3,3-3h44.9c1.7,0,3,1.3,3,3v23.3c0,1.7-1.3,3-3,3H512.3z"/>
				<path class="st5" d="M512.3,809.8c-1.7,0-3-1.3-3-3v-23.3c0-1.7,1.3-3,3-3h25.2c1.7,0,3,1.3,3,3v23.3c0,1.7-1.3,3-3,3H512.3z"/>
				<path class="st4" d="M551.4,809.8c-1.7,0-3-1.3-3-3v-23.3c0-1.7,1.3-3,3-3h25.2c1.7,0,3,1.3,3,3v23.3c0,1.7-1.3,3-3,3H551.4z"/>
				<path class="st4" d="M590.5,809.8c-1.7,0-3-1.3-3-3v-23.3c0-1.7,1.3-3,3-3h25.2c1.7,0,3,1.3,3,3v23.3c0,1.7-1.3,3-3,3H590.5z"/>
				<path class="st4" d="M629.6,809.8c-1.7,0-3-1.3-3-3v-23.3c0-1.7,1.3-3,3-3h25.2c1.7,0,3,1.3,3,3v23.3c0,1.7-1.3,3-3,3H629.6z"/>
				<path class="st4" d="M668.7,809.8c-1.7,0-3-1.3-3-3v-23.3c0-1.7,1.3-3,3-3h25.2c1.7,0,3,1.3,3,3v23.3c0,1.7-1.3,3-3,3H668.7z"/>
				<path class="st4" d="M708.1,809.8c-1.7,0-3-1.3-3-3v-23.3c0-1.7,1.3-3,3-3h25.2c1.7,0,3,1.3,3,3v23.3c0,1.7-1.3,3-3,3H708.1z"/>
				<path class="st4" d="M747.1,809.8c-1.7,0-3-1.3-3-3v-23.3c0-1.7,1.3-3,3-3h25.2c1.7,0,3,1.3,3,3v23.3c0,1.7-1.3,3-3,3H747.1z"/>
				<g>
					<path class="st4" d="M583.3,847.3c-1.7,0-3-1.3-3-3V821c0-1.7,1.3-3,3-3h25.2c1.7,0,3,1.3,3,3v23.3c0,1.7-1.3,3-3,3H583.3z"/>
					<path class="st4" d="M622.4,847.3c-1.7,0-3-1.3-3-3V821c0-1.7,1.3-3,3-3h25.2c1.7,0,3,1.3,3,3v23.3c0,1.7-1.3,3-3,3H622.4z"/>
					<path class="st4" d="M661.5,847.3c-1.7,0-3-1.3-3-3V821c0-1.7,1.3-3,3-3h25.2c1.7,0,3,1.3,3,3v23.3c0,1.7-1.3,3-3,3H661.5z"/>
					<path class="st4" d="M700.6,847.3c-1.7,0-3-1.3-3-3V821c0-1.7,1.3-3,3-3h25.2c1.7,0,3,1.3,3,3v23.3c0,1.7-1.3,3-3,3H700.6z"/>
					<path class="st4" d="M740,847.3c-1.7,0-3-1.3-3-3V821c0-1.7,1.3-3,3-3h25.2c1.7,0,3,1.3,3,3v23.3c0,1.7-1.3,3-3,3H740z"/>
				</g>
				<g>
					<path class="st4" d="M571.4,774.4c-1.7,0-3-1.3-3-3v-23.3c0-1.7,1.3-3,3-3h25.2c1.7,0,3,1.3,3,3v23.3c0,1.7-1.3,3-3,3H571.4z"
						/>
					<path class="st4" d="M610.5,774.4c-1.7,0-3-1.3-3-3v-23.3c0-1.7,1.3-3,3-3h25.2c1.7,0,3,1.3,3,3v23.3c0,1.7-1.3,3-3,3H610.5z"
						/>
					<path class="st4" d="M649.6,774.4c-1.7,0-3-1.3-3-3v-23.3c0-1.7,1.3-3,3-3h25.2c1.7,0,3,1.3,3,3v23.3c0,1.7-1.3,3-3,3H649.6z"
						/>
					<path class="st4" d="M688.7,774.4c-1.7,0-3-1.3-3-3v-23.3c0-1.7,1.3-3,3-3h25.2c1.7,0,3,1.3,3,3v23.3c0,1.7-1.3,3-3,3H688.7z"
						/>
					<path class="st4" d="M728.1,774.4c-1.7,0-3-1.3-3-3v-23.3c0-1.7,1.3-3,3-3h25.2c1.7,0,3,1.3,3,3v23.3c0,1.7-1.3,3-3,3H728.1z"
						/>
					<path class="st4" d="M767.2,774.4c-1.7,0-3-1.3-3-3v-23.3c0-1.7,1.3-3,3-3h25.2c1.7,0,3,1.3,3,3v23.3c0,1.7-1.3,3-3,3H767.2z"
						/>
				</g>
				<path class="st4" d="M786.2,809.8c-1.7,0-3-1.3-3-3v-23.3c0-1.7,1.3-3,3-3h25.2c1.7,0,3,1.3,3,3v23.3c0,1.7-1.3,3-3,3H786.2z"/>
				<path class="st4" d="M512.3,884.4c-1.7,0-3-1.3-3-3v-23.3c0-1.7,1.3-3,3-3h25.2c1.7,0,3,1.3,3,3v23.3c0,1.7-1.3,3-3,3H512.3z"/>
				<path class="st4" d="M552.2,884.4c-1.7,0-3-1.3-3-3v-23.3c0-1.7,1.3-3,3-3h38.1c1.7,0,3,1.3,3,3v23.3c0,1.7-1.3,3-3,3H552.2z"/>
				<path class="st5" d="M604.1,884.4c-1.7,0-3-1.3-3-3v-23.3c0-1.7,1.3-3,3-3h167.2c1.7,0,3,1.3,3,3v23.3c0,1.7-1.3,3-3,3H604.1z"
					/>
				<path class="st4" d="M512.3,847.3c-1.7,0-3-1.3-3-3V821c0-1.7,1.3-3,3-3h56.4c1.7,0,3,1.3,3,3v23.3c0,1.7-1.3,3-3,3H512.3z"/>
				<path class="st5" d="M806.3,774.4c-1.7,0-3-1.3-3-3v-23.3c0-1.7,1.3-3,3-3h45.4c1.7,0,3,1.3,3,3v23.3c0,1.7-1.3,3-3,3H806.3z"/>
				<path class="st4" d="M826.6,809.8c-1.7,0-3-1.3-3-3v-23.3c0-1.7,1.3-3,3-3h25.2c1.7,0,3,1.3,3,3v23.3c0,1.7-1.3,3-3,3H826.6z"/>
				<path class="st4" d="M826.6,884.8c-1.7,0-3-1.3-3-3v-23.3c0-1.7,1.3-3,3-3h25.2c1.7,0,3,1.3,3,3v23.3c0,1.7-1.3,3-3,3H826.6z"/>
				<path class="st4" d="M786.2,884.8c-1.7,0-3-1.3-3-3v-23.3c0-1.7,1.3-3,3-3h25.2c1.7,0,3,1.3,3,3v23.3c0,1.7-1.3,3-3,3H786.2z"/>
				<path class="st4" d="M779,847.3c-1.7,0-3-1.3-3-3V821c0-1.7,1.3-3,3-3h72.7c1.7,0,3,1.3,3,3v23.3c0,1.7-1.3,3-3,3H779z"/>
			</g>
		</g>
		<path class="st1" d="M547.7,277.8v-39.8l-24.9-4c-1.4-4.4-3.1-8.6-5.2-12.6l14.8-20.4L504.2,173l-20.4,14.8
			c-4-2.1-8.2-3.8-12.6-5.2l-4-24.9h-39.8l-4,24.9c-4.4,1.4-8.6,3.1-12.6,5.2L390.6,173l-28.1,28.1l14.8,20.4
			c-2.1,4-3.8,8.2-5.2,12.6l-24.9,4v39.8l24.9,4c1.4,4.4,3.1,8.6,5.2,12.6l-14.8,20.4l28.1,28.1l20.4-14.8c4,2.1,8.2,3.8,12.6,5.2
			l4,24.9h39.8l4-24.9c4.4-1.4,8.6-3.1,12.6-5.2l20.4,14.8l28.1-28.1l-14.8-20.4c2.1-4,3.8-8.2,5.2-12.6L547.7,277.8z M447.4,293
			c-19.4,0-35.1-15.7-35.1-35.1c0-19.4,15.7-35.1,35.1-35.1c19.4,0,35.1,15.7,35.1,35.1C482.5,277.3,466.8,293,447.4,293z"/>
		<path class="st5" d="M651.9,200.8v-21l-13.1-2.1c-0.7-2.3-1.7-4.5-2.8-6.6l7.8-10.8L629,145.5l-10.8,7.8c-2.1-1.1-4.3-2-6.6-2.8
			l-2.1-13.1h-21l-2.1,13.1c-2.3,0.7-4.5,1.7-6.6,2.8l-10.8-7.8l-14.8,14.8l7.8,10.8c-1.1,2.1-2,4.3-2.8,6.6l-13.1,2.1v21l13.1,2.1
			c0.7,2.3,1.7,4.5,2.8,6.6l-7.8,10.8l14.8,14.8l10.8-7.8c2.1,1.1,4.3,2,6.6,2.8l2.1,13.1h21l2.1-13.1c2.3-0.7,4.5-1.7,6.6-2.8
			l10.8,7.8l14.8-14.8l-7.8-10.8c1.1-2.1,2-4.3,2.8-6.6L651.9,200.8z M599,208.8c-10.2,0-18.5-8.3-18.5-18.5
			c0-10.2,8.3-18.5,18.5-18.5c10.2,0,18.5,8.3,18.5,18.5C617.5,200.5,609.2,208.8,599,208.8z"/>
		<path class="st3" d="M562,123.3v-17.5l-11-1.7c-0.6-1.9-1.4-3.8-2.3-5.5l6.5-9l-12.4-12.4l-9,6.5c-1.8-0.9-3.6-1.7-5.5-2.3
			l-1.7-11h-17.5l-1.7,11c-1.9,0.6-3.8,1.4-5.5,2.3l-9-6.5l-12.4,12.4l6.5,9c-0.9,1.8-1.7,3.6-2.3,5.5l-11,1.7v17.5l11,1.7
			c0.6,1.9,1.4,3.8,2.3,5.5l-6.5,9l12.4,12.4l9-6.5c1.8,0.9,3.6,1.7,5.5,2.3l1.7,11h17.5l1.7-11c1.9-0.6,3.8-1.4,5.5-2.3l9,6.5
			l12.4-12.4l-6.5-9c0.9-1.8,1.7-3.6,2.3-5.5L562,123.3z M517.8,130c-8.5,0-15.5-6.9-15.5-15.5c0-8.5,6.9-15.5,15.5-15.5
			c8.5,0,15.5,6.9,15.5,15.5C533.3,123.1,526.4,130,517.8,130z"/>
		<g>
			<g>
				<path class="st1" d="M735.9,609.5H626c0.4,14.8-3,49.3-42.3,53.9c-7,0.8-12.3,6.6-12.3,13.7v0.6c0,7.6,6.2,13.8,13.8,13.8h191.6
					c7.6,0,13.8-6.2,13.8-13.8v-0.6c0-7-5.3-12.9-12.3-13.7C738.9,658.9,735.5,624.3,735.9,609.5z"/>
			</g>
			<g>
				<path class="st6" d="M624.8,625h112.2c-1.1-5.9-1.3-11.4-1.2-15.4H626C626.1,613.6,625.9,619,624.8,625z"/>
			</g>
			<path class="st2" d="M889.6,257.6H472.3c-17.6,0-31.8,14.2-31.8,31.8v287.9c0,17.6,14.2,31.8,31.8,31.8h417.2
				c17.6,0,31.8-14.2,31.8-31.8V289.4C921.4,271.9,907.1,257.6,889.6,257.6z"/>
			<path class="st1" d="M440.5,549.1v28.3c0,17.6,14.2,31.8,31.8,31.8h417.2c17.6,0,31.8-14.2,31.8-31.8v-28.3H440.5z"/>
			<path class="st1" d="M886.7,525.5H475.2c-8.1,0-14.7-6.6-14.7-14.7v-214c0-8.1,6.6-14.7,14.7-14.7h411.6
				c8.1,0,14.7,6.6,14.7,14.7v214C901.5,518.9,894.9,525.5,886.7,525.5z"/>
			<circle class="st2" cx="680.9" cy="581.4" r="15.6"/>
			<rect x="495.3" y="306" class="st2" width="384.6" height="199.8"/>
			<rect x="495.3" y="306" class="st6" width="384.6" height="34.7"/>
			<g>
				<circle class="st3" cx="517.9" cy="323.7" r="7.1"/>
				<circle class="st7" cx="550.4" cy="323.7" r="7.1"/>
				<circle class="st8" cx="583.8" cy="323.7" r="7.1"/>
			</g>
			<g>
				<rect x="560.9" y="375" class="st7" width="70.4" height="5.9"/>
				<rect x="560.9" y="457.3" class="st7" width="70.4" height="5.9"/>
				<rect x="567.3" y="387.6" class="st3" width="88" height="5.9"/>
				<rect x="567.3" y="442.3" class="st3" width="80.2" height="5.9"/>
				<rect x="653.5" y="442.3" class="st8" width="20" height="5.9"/>
				<rect x="567.3" y="402.4" class="st8" width="98.9" height="5.9"/>
				<rect x="567.3" y="415.7" class="st3" width="88" height="5.9"/>
				<rect x="567.3" y="429.3" class="st7" width="106.4" height="5.9"/>
				<rect x="662" y="415.7" class="st7" width="25.6" height="5.9"/>
				<rect x="672.9" y="402.4" class="st8" width="75.8" height="5.9"/>
				<rect x="660.1" y="387.6" class="st3" width="38.3" height="5.9"/>
				<g>
					<path class="st3" d="M575.4,369.6l-9.4-5.8v-2.1l9.4-5.8v3l-6.5,3.8l6.5,3.9V369.6z"/>
					<path class="st3" d="M587.7,352.9l-7.3,19.5h-3.4l7.3-19.5H587.7z"/>
					<path class="st3" d="M589.3,366.6l6.5-3.9l-6.5-3.8v-3l9.4,5.8v2.1l-9.4,5.8V366.6z"/>
				</g>
				<g>
					<path class="st3" d="M575.4,488.4l-9.4-5.8v-2.1l9.4-5.8v3l-6.5,3.8l6.5,3.9V488.4z"/>
					<path class="st3" d="M587.7,471.7l-7.3,19.5h-3.4l7.3-19.5H587.7z"/>
					<path class="st3" d="M589.3,485.4l6.5-3.9l-6.5-3.8v-3l9.4,5.8v2.1l-9.4,5.8V485.4z"/>
				</g>
			</g>
			<rect x="542.2" y="353.9" class="st7" width="5.1" height="139.7"/>
			<g>
				<circle class="st8" cx="525.5" cy="365.7" r="5.3"/>
				<circle class="st8" cx="525.5" cy="388.3" r="5.3"/>
				<circle class="st8" cx="525.5" cy="410.9" r="5.3"/>
				<circle class="st8" cx="525.5" cy="433.5" r="5.3"/>
				<circle class="st8" cx="525.5" cy="456.1" r="5.3"/>
				<circle class="st8" cx="525.5" cy="478.7" r="5.3"/>
			</g>
		</g>
		<g>
			<rect x="155.6" y="413.2" class="st1" width="234.3" height="158.3"/>
			<rect x="155.6" y="413.2" class="st2" width="234.3" height="33.6"/>
			<g>
				<path class="st8" d="M246.6,534.4l-35.4-21.9v-7.8l35.4-21.8v11.3l-24.5,14.4l24.5,14.5V534.4z"/>
				<path class="st8" d="M293,471.4l-27.4,73.5h-12.9l27.4-73.5H293z"/>
				<path class="st8" d="M299,523.1l24.6-14.5L299,494.1v-11.3l35.4,21.8v7.8L299,534.4V523.1z"/>
			</g>
		</g>
		<g>
			<path class="st1" d="M981.4,714.5h-28.1c-20,0-36.4,16.4-36.4,36.4v80.2c0,20,16.4,36.4,36.4,36.4h28.1c20,0,36.4-16.4,36.4-36.4
				v-80.2C1017.9,730.9,1001.5,714.5,981.4,714.5z"/>
			<path class="st6" d="M971.1,734.4h-7.5c-2.2,0-4.1,1.8-4.1,4.1v39.4c0,2.2,1.8,4.1,4.1,4.1h7.5c2.2,0,4.1-1.8,4.1-4.1v-39.4
				C975.2,736.2,973.4,734.4,971.1,734.4z"/>
		</g>
		<g>
			<g>
				<path class="st1" d="M392.7,635.2H279.4c-9.5,0-17.2,7.7-17.2,17.2v194.5c0,9.5,7.7,17.2,17.2,17.2h113.4
					c9.5,0,17.2-7.7,17.2-17.2V652.4C409.9,642.9,402.2,635.2,392.7,635.2z"/>
				<path class="st2" d="M272.3,664.6v152.7c0,4.4,3.6,8,8,8h111.5c4.4,0,8-3.6,8-8V664.6c0-4.4-3.6-8-8-8H280.3
					C275.9,656.7,272.3,660.2,272.3,664.6z"/>
				<circle class="st2" cx="336" cy="845.6" r="10.8"/>
			</g>
			<path class="st1" d="M371.2,719.7v-13.9l-8.7-1.4c-0.5-1.5-1.1-3-1.8-4.4l5.2-7.2l-9.9-9.9l-7.2,5.2c-1.4-0.7-2.9-1.3-4.4-1.8
				l-1.4-8.7h-13.9l-1.4,8.7c-1.5,0.5-3,1.1-4.4,1.8l-7.2-5.2l-9.9,9.9l5.2,7.2c-0.7,1.4-1.3,2.9-1.8,4.4l-8.7,1.4v13.9l8.7,1.4
				c0.5,1.5,1.1,3,1.8,4.4l-5.2,7.2l9.9,9.9l7.2-5.2c1.4,0.7,2.9,1.3,4.4,1.8l1.4,8.7H343l1.4-8.7c1.5-0.5,3-1.1,4.4-1.8l7.2,5.2
				l9.9-9.9l-5.2-7.2c0.7-1.4,1.3-2.9,1.8-4.4L371.2,719.7z M336,729.7c-9.4,0-17-7.6-17-17c0-9.4,7.6-17,17-17c9.4,0,17,7.6,17,17
				C353.1,722.1,345.4,729.7,336,729.7z"/>
			
				<ellipse transform="matrix(0.2298 -0.9732 0.9732 0.2298 -434.8045 876.0165)" class="st5" cx="336" cy="712.7" rx="7.9" ry="7.9"/>
			<path class="st3" d="M375.1,764.6H297c-2.3,0-4.2,1.9-4.2,4.2l0,0c0,2.3,1.9,4.2,4.2,4.2h78.2c2.3,0,4.2-1.9,4.2-4.2l0,0
				C379.3,766.5,377.4,764.6,375.1,764.6z"/>
			<path class="st5" d="M362.5,783.8h-52.9c-2.3,0-4.2,1.9-4.2,4.2l0,0c0,2.3,1.9,4.2,4.2,4.2h52.9c2.3,0,4.2-1.9,4.2-4.2l0,0
				C366.7,785.7,364.8,783.8,362.5,783.8z"/>
			<path class="st3" d="M371.3,802.3h-70.6c-2.3,0-4.2,1.9-4.2,4.2l0,0c0,2.3,1.9,4.2,4.2,4.2h70.6c2.3,0,4.2-1.9,4.2-4.2l0,0
				C375.5,804.2,373.6,802.3,371.3,802.3z"/>
		</g>
		<g>
			<rect x="1000.4" y="366.9" class="st1" width="238.5" height="272.7"/>
			<rect x="1000.4" y="366.9" class="st2" width="238.5" height="42.6"/>
			<g>
				<rect x="1029.4" y="433.2" class="st5" width="17.1" height="15.4"/>
				<rect x="1029.4" y="462.1" class="st5" width="17.1" height="15.4"/>
				<rect x="1029.4" y="490.9" class="st8" width="17.1" height="15.4"/>
				<rect x="1029.4" y="519.8" class="st5" width="17.1" height="15.4"/>
				<rect x="1029.4" y="548.6" class="st8" width="17.1" height="15.4"/>
				<rect x="1029.4" y="577.4" class="st8" width="17.1" height="15.4"/>
				<rect x="1029.4" y="606.3" class="st5" width="17.1" height="15.4"/>
			</g>
			<g>
				<rect x="1071.8" y="433.2" class="st2" width="51.3" height="15.4"/>
				<rect x="1071.8" y="459.4" class="st5" width="72.2" height="15.4"/>
				<rect x="1071.8" y="508" class="st5" width="80.5" height="15.4"/>
				<rect x="1071.8" y="533.5" class="st2" width="34" height="15.4"/>
				<rect x="1154.9" y="459.4" class="st5" width="20.2" height="15.4"/>
				<rect x="1071.8" y="483.2" class="st8" width="90.4" height="15.4"/>
				<rect x="1175.8" y="483.2" class="st8" width="25.3" height="15.4"/>
				<rect x="1134" y="433.2" class="st2" width="13.1" height="15.4"/>
			</g>
			<g>
				<rect x="1071.8" y="556.3" class="st5" width="75.9" height="15.4"/>
				<rect x="1071.8" y="582.5" class="st8" width="56" height="15.4"/>
				<rect x="1140.3" y="582.5" class="st8" width="29" height="15.4"/>
				<rect x="1071.8" y="606.3" class="st5" width="104.7" height="15.4"/>
				<rect x="1162.3" y="556.3" class="st5" width="23.2" height="15.4"/>
			</g>
			<rect x="1058" y="427" class="st2" width="6.3" height="201.7"/>
		</g>
		<g>
			<path class="st3" d="M229.4,284.2L229.4,284.2c-3.3,3.3-8.7,3.3-12,0l-24.4-24.4c-3.3-3.3-3.3-8.7,0-12v0c3.3-3.3,8.7-3.3,12,0
				l24.4,24.4C232.7,275.5,232.7,280.9,229.4,284.2z"/>
			<path class="st3" d="M229,305.9L229,305.9c3.3,3.3,3.3,8.7,0,12l-24.4,24.4c-3.3,3.3-8.7,3.3-12,0l0,0c-3.3-3.3-3.3-8.7,0-12
				l24.4-24.4C220.3,302.6,225.7,302.6,229,305.9z"/>
			<path class="st3" d="M250.7,306.3L250.7,306.3c3.3-3.3,8.7-3.3,12,0l24.4,24.4c3.3,3.3,3.3,8.7,0,12v0c-3.3,3.3-8.7,3.3-12,0
				l-24.4-24.4C247.4,315,247.4,309.6,250.7,306.3z"/>
			<path class="st3" d="M251.1,284.6L251.1,284.6c-3.3-3.3-3.3-8.7,0-12l24.4-24.4c3.3-3.3,8.7-3.3,12,0l0,0c3.3,3.3,3.3,8.7,0,12
				l-24.4,24.4C259.8,287.9,254.4,287.9,251.1,284.6z"/>
		</g>
		<g>
			<path class="st1" d="M1164.8,152.5L1164.8,152.5c-1.9,1.9-5.1,1.9-7,0l-14.2-14.2c-1.9-1.9-1.9-5.1,0-7l0,0c1.9-1.9,5.1-1.9,7,0
				l14.2,14.2C1166.8,147.4,1166.8,150.6,1164.8,152.5z"/>
			<path class="st1" d="M1164.6,165.1L1164.6,165.1c1.9,1.9,1.9,5.1,0,7l-14.2,14.2c-1.9,1.9-5.1,1.9-7,0v0c-1.9-1.9-1.9-5.1,0-7
				l14.2-14.2C1159.5,163.2,1162.7,163.2,1164.6,165.1z"/>
			<path class="st1" d="M1177.2,165.3L1177.2,165.3c1.9-1.9,5.1-1.9,7,0l14.2,14.2c1.9,1.9,1.9,5.1,0,7l0,0c-1.9,1.9-5.1,1.9-7,0
				l-14.2-14.2C1175.3,170.4,1175.3,167.3,1177.2,165.3z"/>
			<path class="st1" d="M1177.5,152.7L1177.5,152.7c-1.9-1.9-1.9-5.1,0-7l14.2-14.2c1.9-1.9,5.1-1.9,7,0l0,0c1.9,1.9,1.9,5.1,0,7
				l-14.2,14.2C1182.5,154.6,1179.4,154.6,1177.5,152.7z"/>
		</g>
		<g>
			<path class="st1" d="M376.4,106.2L376.4,106.2c0,1.7-1.4,3.2-3.2,3.2h-12.9c-1.7,0-3.2-1.4-3.2-3.2v0c0-1.7,1.4-3.2,3.2-3.2h12.9
				C375,103,376.4,104.5,376.4,106.2z"/>
			<path class="st1" d="M382,112.1L382,112.1c1.7,0,3.2,1.4,3.2,3.2v12.9c0,1.7-1.4,3.2-3.2,3.2l0,0c-1.7,0-3.2-1.4-3.2-3.2v-12.9
				C378.8,113.5,380.3,112.1,382,112.1z"/>
			<path class="st1" d="M387.9,106.4L387.9,106.4c0-1.7,1.4-3.2,3.2-3.2H404c1.7,0,3.2,1.4,3.2,3.2v0c0,1.7-1.4,3.2-3.2,3.2h-12.9
				C389.3,109.6,387.9,108.2,387.9,106.4z"/>
			<path class="st1" d="M382.2,100.6L382.2,100.6c-1.7,0-3.2-1.4-3.2-3.2V84.5c0-1.7,1.4-3.2,3.2-3.2h0c1.7,0,3.2,1.4,3.2,3.2v12.9
				C385.4,99.1,384,100.6,382.2,100.6z"/>
		</g>
		<g>
			<path class="st1" d="M164.3,701.9L164.3,701.9c0,2.3-1.9,4.2-4.2,4.2h-17.3c-2.3,0-4.2-1.9-4.2-4.2l0,0c0-2.3,1.9-4.2,4.2-4.2
				H160C162.4,697.7,164.3,699.6,164.3,701.9z"/>
			<path class="st1" d="M171.8,709.7L171.8,709.7c2.3,0,4.2,1.9,4.2,4.2v17.3c0,2.3-1.9,4.2-4.2,4.2h0c-2.3,0-4.2-1.9-4.2-4.2V714
				C167.6,711.6,169.5,709.7,171.8,709.7z"/>
			<path class="st1" d="M179.6,702.2L179.6,702.2c0-2.3,1.9-4.2,4.2-4.2h17.3c2.3,0,4.2,1.9,4.2,4.2l0,0c0,2.3-1.9,4.2-4.2,4.2
				h-17.3C181.5,706.4,179.6,704.5,179.6,702.2z"/>
			<path class="st1" d="M172.1,694.4L172.1,694.4c-2.3,0-4.2-1.9-4.2-4.2v-17.3c0-2.3,1.9-4.2,4.2-4.2l0,0c2.3,0,4.2,1.9,4.2,4.2
				v17.3C176.3,692.5,174.4,694.4,172.1,694.4z"/>
		</g>
		<g>
			<path class="st1" d="M1232.8,827.3L1232.8,827.3c0,1.5-1.2,2.7-2.7,2.7h-10.8c-1.5,0-2.7-1.2-2.7-2.7l0,0c0-1.5,1.2-2.7,2.7-2.7
				h10.8C1231.6,824.7,1232.8,825.9,1232.8,827.3z"/>
			<path class="st1" d="M1237.6,832.2L1237.6,832.2c1.5,0,2.7,1.2,2.7,2.7v10.8c0,1.5-1.2,2.7-2.7,2.7l0,0c-1.5,0-2.7-1.2-2.7-2.7
				v-10.8C1234.9,833.4,1236.1,832.2,1237.6,832.2z"/>
			<path class="st1" d="M1242.5,827.5L1242.5,827.5c0-1.5,1.2-2.7,2.7-2.7h10.8c1.5,0,2.7,1.2,2.7,2.7l0,0c0,1.5-1.2,2.7-2.7,2.7
				h-10.8C1243.7,830.2,1242.5,829,1242.5,827.5z"/>
			<path class="st1" d="M1237.7,822.6L1237.7,822.6c-1.5,0-2.7-1.2-2.7-2.7v-10.8c0-1.5,1.2-2.7,2.7-2.7l0,0c1.5,0,2.7,1.2,2.7,2.7
				V820C1240.4,821.4,1239.2,822.6,1237.7,822.6z"/>
		</g>
		<g>
			<path class="st1" d="M735.1,183.1L735.1,183.1c0,2.7-2.2,4.9-4.9,4.9h-19.8c-2.7,0-4.9-2.2-4.9-4.9v0c0-2.7,2.2-4.9,4.9-4.9h19.8
				C732.9,178.2,735.1,180.4,735.1,183.1z"/>
			<path class="st1" d="M743.8,192.1L743.8,192.1c2.7,0,4.9,2.2,4.9,4.9v19.8c0,2.7-2.2,4.9-4.9,4.9l0,0c-2.7,0-4.9-2.2-4.9-4.9
				v-19.8C738.9,194.2,741.1,192.1,743.8,192.1z"/>
			<path class="st1" d="M752.7,183.4L752.7,183.4c0-2.7,2.2-4.9,4.9-4.9h19.8c2.7,0,4.9,2.2,4.9,4.9l0,0c0,2.7-2.2,4.9-4.9,4.9
				h-19.8C754.9,188.3,752.7,186.1,752.7,183.4z"/>
			<path class="st1" d="M744.1,174.5L744.1,174.5c-2.7,0-4.9-2.2-4.9-4.9v-19.8c0-2.7,2.2-4.9,4.9-4.9h0c2.7,0,4.9,2.2,4.9,4.9v19.8
				C748.9,172.3,746.7,174.5,744.1,174.5z"/>
		</g>
		<g>
			<path class="st3" d="M935.9,659.9L935.9,659.9c1.5,1.5,1.5,4,0,5.5l-11.3,11.3c-1.5,1.5-4,1.5-5.5,0h0c-1.5-1.5-1.5-4,0-5.5
				l11.3-11.3C931.8,658.4,934.3,658.4,935.9,659.9z"/>
			<path class="st3" d="M945.9,660.1L945.9,660.1c1.5-1.5,4-1.5,5.5,0l11.3,11.3c1.5,1.5,1.5,4,0,5.5l0,0c-1.5,1.5-4,1.5-5.5,0
				l-11.3-11.3C944.3,664.1,944.3,661.6,945.9,660.1z"/>
			<path class="st3" d="M946,650.1L946,650.1c-1.5-1.5-1.5-4,0-5.5l11.3-11.3c1.5-1.5,4-1.5,5.5,0l0,0c1.5,1.5,1.5,4,0,5.5
				l-11.3,11.3C950.1,651.6,947.6,651.6,946,650.1z"/>
			<path class="st3" d="M936,649.9L936,649.9c-1.5,1.5-4,1.5-5.5,0l-11.3-11.3c-1.5-1.5-1.5-4,0-5.5l0,0c1.5-1.5,4-1.5,5.5,0
				l11.3,11.3C937.6,645.9,937.6,648.4,936,649.9z"/>
		</g>
		<path class="st5" d="M1153.2,732.4v-14.2h-10.4c-1.1-6.7-3.8-12.8-7.6-18.1l7.3-7.3l-10.1-10.1l-7.4,7.4
			c-5.3-3.8-11.5-6.4-18.2-7.4v-10.3h-14.2v10.4c-6.7,1.1-12.8,3.8-18.1,7.6l-7.3-7.3l-10.1,10.1l7.4,7.4
			c-3.8,5.3-6.4,11.5-7.4,18.2h-10.3v14.2h10.4c1.1,6.7,3.8,12.8,7.6,18.1l-7.3,7.3l10.1,10.1l7.4-7.4c5.3,3.8,11.5,6.4,18.2,7.4
			v10.3h14.2v-10.4c6.7-1.1,12.8-3.8,18.1-7.6l7.3,7.3l10.1-10.1l-7.4-7.4c3.8-5.3,6.4-11.5,7.4-18.2H1153.2z M1100,748.9
			c-12.9,0-23.4-10.5-23.4-23.4S1087,702,1100,702s23.4,10.5,23.4,23.4S1112.9,748.9,1100,748.9z"/>
		<path class="st3" d="M1178.7,816.4v-9.9h-7.2c-0.8-4.6-2.6-8.9-5.3-12.6l5.1-5.1l-7-7l-5.1,5.1c-3.7-2.6-8-4.4-12.6-5.2v-7.2h-9.9
			v7.2c-4.6,0.8-8.9,2.6-12.6,5.3l-5.1-5.1l-7,7l5.1,5.1c-2.6,3.7-4.4,8-5.2,12.6h-7.2v9.9h7.2c0.8,4.6,2.6,8.9,5.3,12.6l-5.1,5.1
			l7,7l5.1-5.1c3.7,2.6,8,4.4,12.6,5.2v7.2h9.9v-7.2c4.6-0.8,8.9-2.6,12.6-5.3l5.1,5.1l7-7l-5.1-5.1c2.6-3.7,4.4-8,5.2-12.6H1178.7z
			 M1141.7,827.9c-9,0-16.3-7.3-16.3-16.3c0-9,7.3-16.3,16.3-16.3c9,0,16.3,7.3,16.3,16.3C1158,820.6,1150.7,827.9,1141.7,827.9z"/>
		<path class="st1" d="M1214.1,752.5v-8.3h-6c-0.7-3.9-2.2-7.4-4.4-10.5l4.2-4.2l-5.8-5.8l-4.3,4.3c-3.1-2.2-6.7-3.7-10.5-4.3v-6
			h-8.3v6c-3.9,0.7-7.4,2.2-10.5,4.4l-4.2-4.2l-5.8,5.8l4.3,4.3c-2.2,3.1-3.7,6.7-4.3,10.5h-6v8.3h6c0.7,3.9,2.2,7.4,4.4,10.5
			l-4.2,4.2l5.8,5.8l4.3-4.3c3.1,2.2,6.7,3.7,10.5,4.3v6h8.3v-6c3.9-0.7,7.4-2.2,10.5-4.4l4.2,4.2l5.8-5.8l-4.3-4.3
			c2.2-3.1,3.7-6.7,4.3-10.5H1214.1z M1183.3,762.1c-7.5,0-13.6-6.1-13.6-13.6s6.1-13.6,13.6-13.6s13.6,6.1,13.6,13.6
			S1190.8,762.1,1183.3,762.1z"/>
		<path class="st5" d="M264.8,149.1c-11.6,0-20.9,9.4-20.9,20.9c0,11.6,9.4,20.9,20.9,20.9s20.9-9.4,20.9-20.9
			C285.7,158.5,276.3,149.1,264.8,149.1z M264.8,181.4c-6.3,0-11.3-5.1-11.3-11.3c0-6.3,5.1-11.3,11.3-11.3s11.3,5.1,11.3,11.3
			C276.1,176.3,271.1,181.4,264.8,181.4z"/>
		<path class="st5" d="M1254.1,669.2c-10.4,0-18.8,8.4-18.8,18.8s8.4,18.8,18.8,18.8s18.8-8.4,18.8-18.8S1264.5,669.2,1254.1,669.2z
			 M1254.1,698.1c-5.6,0-10.2-4.6-10.2-10.2s4.6-10.2,10.2-10.2s10.2,4.6,10.2,10.2S1259.7,698.1,1254.1,698.1z"/>
		<path class="st3" d="M479.9,654c-7.9,0-14.3,6.4-14.3,14.3c0,7.9,6.4,14.3,14.3,14.3c7.9,0,14.3-6.4,14.3-14.3
			C494.2,660.4,487.8,654,479.9,654z M479.9,676c-4.3,0-7.7-3.5-7.7-7.7s3.5-7.7,7.7-7.7s7.7,3.5,7.7,7.7S484.2,676,479.9,676z"/>
		<path class="st2" d="M200.9,789.6c-7.9,0-14.3,6.4-14.3,14.3s6.4,14.3,14.3,14.3s14.3-6.4,14.3-14.3S208.8,789.6,200.9,789.6z
			 M200.9,811.7c-4.3,0-7.8-3.5-7.8-7.8s3.5-7.8,7.8-7.8s7.8,3.5,7.8,7.8S205.2,811.7,200.9,811.7z"/>
	</g>
</g>
</svg>
