<?xml version="1.0" encoding="utf-8"?>
<!-- Generator: Adobe Illustrator 16.0.0, SVG Export Plug-In . SVG Version: 6.00 Build 0)  -->
<!DOCTYPE svg PUBLIC "-//W3C//DTD SVG 1.1//EN" "http://www.w3.org/Graphics/SVG/1.1/DTD/svg11.dtd">
<svg version="1.1" id="Layer_1" xmlns="http://www.w3.org/2000/svg" xmlns:xlink="http://www.w3.org/1999/xlink" x="0px" y="0px"
	 width="1400px" height="980px" viewBox="0 0 1400 980" enable-background="new 0 0 1400 980" xml:space="preserve">
<g>
	<g>
		<g>
			<rect fill="#FFFFFF" width="1400" height="980"/>
		</g>
	</g>
	<g>
		<g>
			<path fill="#FDFFC8" d="M585.9,356.8c0-10.1-8.2-18.3-18.3-18.3H110.3c-10.1,0-18.3,8.2-18.3,18.3v286.6h493.9V356.8z"/>
			<path d="M585.9,646.4H92c-1.7,0-3-1.4-3-3V356.8c0-11.8,9.6-21.3,21.3-21.3h457.3c11.8,0,21.3,9.6,21.3,21.3v286.6
				C588.9,645.1,587.5,646.4,585.9,646.4z M95,640.3h487.8V356.8c0-8.4-6.8-15.3-15.3-15.3H110.3c-8.4,0-15.3,6.8-15.3,15.3V640.3z"
				/>
		</g>
		<g>
			<path fill="#D1D3D4" d="M92,643.4v49.5c0,10.1,8.2,18.3,18.3,18.3h457.3c10,0,18.3-8.2,18.3-18.3v-49.5H92z"/>
			<path d="M567.6,714.2H110.3c-11.8,0-21.3-9.6-21.3-21.3v-49.5c0-1.7,1.4-3,3-3h493.9c1.7,0,3,1.4,3,3v49.5
				C588.9,704.7,579.3,714.2,567.6,714.2z M95,646.4v46.5c0,8.4,6.8,15.3,15.3,15.3h457.3c8.4,0,15.3-6.8,15.3-15.3v-46.5H95z"/>
		</g>
	</g>
	<g>
		<path d="M338.9,765.7c-1.7,0-3-1.4-3-3v-51.4c0-1.7,1.4-3,3-3c1.7,0,3,1.4,3,3v51.4C342,764.3,340.6,765.7,338.9,765.7z"/>
	</g>
	<g>
		<path d="M401,793.5H277.2c-9.3,0-16.9-7.6-16.9-16.9c0-9.3,7.6-17,16.9-17H401c9.3,0,16.9,7.6,16.9,17
			C418,785.9,410.4,793.5,401,793.5z M277.2,765.7c-6,0-10.9,4.9-10.9,10.9c0,6,4.9,10.9,10.9,10.9H401c6,0,10.9-4.9,10.9-10.9
			c0-6-4.9-10.9-10.9-10.9H277.2z"/>
	</g>
	<g>
		<g>
			<polygon fill="#A38934" points="257.9,513.3 286.5,513.3 286.5,525.1 339.1,525.1 390.9,525.1 390.9,513.3 419.4,513.3 
				419.4,525.1 419.8,525.1 464.2,497.6 464.2,424.4 214,424.4 214,497.6 257.9,524.7 			"/>
			<path d="M419.8,528.1h-0.4c-1.7,0-3-1.4-3-3v-8.8h-22.5v8.8c0,1.7-1.4,3-3,3H286.5c-1.7,0-3-1.4-3-3v-8.8H261v8.4
				c0,1.1-0.6,2.1-1.6,2.7c-1,0.5-2.1,0.5-3.1-0.1l-43.9-27.1c-0.9-0.6-1.4-1.5-1.4-2.6v-73.2c0-1.7,1.4-3,3-3h250.2
				c1.7,0,3,1.4,3,3v73.2c0,1.1-0.5,2-1.4,2.6l-44.4,27.4C420.9,527.9,420.3,528.1,419.8,528.1z M289.5,522h98.3v-8.8
				c0-1.7,1.4-3,3-3h28.5c1.7,0,3,1.4,3,3v6.6l38.7-23.9v-68.5H217.1v68.5l37.8,23.3v-6c0-1.7,1.4-3,3-3h28.5c1.7,0,3,1.4,3,3V522z"
				/>
		</g>
		<g>
			<polygon fill="#A38934" points="419.8,525.1 419.4,525.1 419.4,547.3 390.9,547.3 390.9,525.1 339.1,525.1 286.5,525.1 
				286.5,547.3 257.9,547.3 257.9,524.7 214,497.6 214,602.1 464.2,602.1 464.2,497.6 			"/>
			<path d="M464.2,605.2H214c-1.7,0-3-1.4-3-3V497.6c0-1.1,0.6-2.1,1.6-2.7c0.9-0.5,2.1-0.5,3.1,0.1l43.9,27.1
				c0.9,0.6,1.4,1.5,1.4,2.6v19.5h22.5v-19.2c0-1.7,1.4-3,3-3h104.4c1.7,0,3,1.4,3,3v19.2h22.5v-19.2c0-1.5,1.1-2.7,2.4-3l43.8-27
				c0.9-0.6,2.1-0.6,3.1-0.1c1,0.5,1.6,1.5,1.6,2.7v104.5C467.2,603.8,465.9,605.2,464.2,605.2z M217.1,599.1h244.1v-96L422.4,527
				v20.3c0,1.7-1.4,3-3,3h-28.5c-1.7,0-3-1.4-3-3v-19.2h-98.3v19.2c0,1.7-1.4,3-3,3h-28.5c-1.7,0-3-1.4-3-3v-20.9l-37.8-23.3V599.1z
				"/>
		</g>
		<g>
			<polygon fill="#FFFFFF" points="257.9,513.3 257.9,524.7 257.9,547.3 286.5,547.3 286.5,525.1 286.5,513.3 			"/>
			<path d="M286.5,550.3h-28.5c-1.7,0-3-1.4-3-3v-34c0-1.7,1.4-3,3-3h28.5c1.7,0,3,1.4,3,3v34C289.5,549,288.1,550.3,286.5,550.3z
				 M261,544.2h22.5v-27.9H261V544.2z"/>
		</g>
		<g>
			<polygon fill="#FFFFFF" points="390.9,513.3 390.9,525.1 390.9,547.3 419.4,547.3 419.4,525.1 419.4,513.3 			"/>
			<path d="M419.4,550.3h-28.5c-1.7,0-3-1.4-3-3v-34c0-1.7,1.4-3,3-3h28.5c1.7,0,3,1.4,3,3v34C422.4,549,421.1,550.3,419.4,550.3z
				 M393.9,544.2h22.5v-27.9h-22.5V544.2z"/>
		</g>
		<g>
			<path d="M395.9,427.4c-1.7,0-3-1.4-3-3v-21c0-11.3-9.2-20.6-20.5-20.6h-66.4c-11.3,0-20.6,9.2-20.6,20.6v21c0,1.7-1.4,3-3,3
				c-1.7,0-3-1.4-3-3v-21c0-14.7,11.9-26.6,26.6-26.6h66.4c14.7,0,26.6,11.9,26.6,26.6v21C398.9,426.1,397.6,427.4,395.9,427.4z"/>
		</g>
	</g>
	<g>
		<path d="M585.9,494c-0.8,0-1.6-0.3-2.1-0.9c-1.2-1.2-1.2-3.1,0-4.3l186.7-186.7c1.2-1.2,3.1-1.2,4.3,0c1.2,1.2,1.2,3.1,0,4.3
			L588,493.1C587.4,493.7,586.6,494,585.9,494z"/>
	</g>
	<g>
		<path d="M772.6,680.7c-0.8,0-1.6-0.3-2.1-0.9L583.7,493.1c-1.2-1.2-1.2-3.1,0-4.3c1.2-1.2,3.1-1.2,4.3,0l186.7,186.7
			c1.2,1.2,1.2,3.1,0,4.3C774.1,680.4,773.3,680.7,772.6,680.7z"/>
	</g>
	<g>
		<path d="M772.6,494H585.9c-1.7,0-3-1.4-3-3c0-1.7,1.4-3,3-3h186.7c1.7,0,3,1.4,3,3C775.6,492.6,774.2,494,772.6,494z"/>
	</g>
	<g>
		<path fill="#C0FFB7" d="M660.5,490.9c0,41.3-33.4,74.7-74.7,74.7c-41.3,0-74.7-33.4-74.7-74.7c0-41.3,33.4-74.7,74.7-74.7
			C627.1,416.3,660.5,449.7,660.5,490.9z"/>
		<path d="M585.9,568.7c-42.9,0-77.7-34.9-77.7-77.7c0-42.9,34.9-77.7,77.7-77.7c42.9,0,77.7,34.9,77.7,77.7
			C663.6,533.8,628.7,568.7,585.9,568.7z M585.9,419.3c-39.5,0-71.7,32.1-71.7,71.7c0,39.5,32.1,71.7,71.7,71.7
			c39.5,0,71.6-32.1,71.6-71.7C657.5,451.4,625.4,419.3,585.9,419.3z"/>
	</g>
	<g>
		<path fill="#FDFFC8" d="M899.7,251.8c0,41.3-33.4,74.7-74.7,74.7c-41.3,0-74.7-33.4-74.7-74.7c0-41.2,33.4-74.7,74.7-74.7
			C866.2,177.1,899.7,210.6,899.7,251.8z"/>
		<path d="M825,329.6c-42.9,0-77.7-34.9-77.7-77.7s34.9-77.7,77.7-77.7c42.9,0,77.7,34.9,77.7,77.7S867.8,329.6,825,329.6z
			 M825,180.2c-39.5,0-71.7,32.1-71.7,71.7c0,39.5,32.1,71.7,71.7,71.7s71.7-32.1,71.7-71.7C896.6,212.3,864.5,180.2,825,180.2z"/>
	</g>
	<g>
		<path fill="#FFB2AD" d="M899.7,728.2c0,41.3-33.4,74.7-74.7,74.7c-41.3,0-74.7-33.4-74.7-74.7c0-41.3,33.4-74.7,74.7-74.7
			C866.2,653.5,899.7,686.9,899.7,728.2z"/>
		<path d="M825,805.9c-42.9,0-77.7-34.9-77.7-77.7c0-42.9,34.9-77.7,77.7-77.7c42.9,0,77.7,34.9,77.7,77.7
			C902.7,771,867.8,805.9,825,805.9z M825,656.5c-39.5,0-71.7,32.1-71.7,71.7s32.1,71.7,71.7,71.7s71.7-32.1,71.7-71.7
			S864.5,656.5,825,656.5z"/>
	</g>
	<g>
		<path fill="#EEBEFF" d="M922,490.9c0,41.3-33.4,74.7-74.7,74.7c-41.2,0-74.7-33.4-74.7-74.7c0-41.3,33.4-74.7,74.7-74.7
			C888.5,416.3,922,449.7,922,490.9z"/>
		<path d="M847.3,568.7c-42.9,0-77.7-34.9-77.7-77.7c0-42.9,34.9-77.7,77.7-77.7s77.7,34.9,77.7,77.7
			C925,533.8,890.1,568.7,847.3,568.7z M847.3,419.3c-39.5,0-71.7,32.1-71.7,71.7c0,39.5,32.1,71.7,71.7,71.7
			c39.5,0,71.7-32.1,71.7-71.7C918.9,451.4,886.8,419.3,847.3,419.3z"/>
	</g>
	<g>
		<path fill="#A9DDFF" d="M1278.9,227.5c1.7-5.1,2.6-10.6,2.6-16.3c0-26.8-20.1-48.9-46.1-52.1c-20.8-27.4-53.7-45.2-90.8-45.2
			c-57.4,0-104.8,42.5-112.8,97.7c-26.3,2.9-46.7,25.1-46.7,52.2c0,29,23.5,52.5,52.5,52.5h34.8c19.7,16.1,44.8,25.8,72.2,25.8
			c27.4,0,52.6-9.7,72.2-25.8h50.7c24.9,0,45.1-20.2,45.1-45.1C1312.6,250.1,1298.3,232.5,1278.9,227.5z"/>
		<path d="M1144.6,345c-26.6,0-52.6-9.2-73.3-25.8h-33.7c-30.6,0-55.6-24.9-55.6-55.6c0-27.6,20.1-50.8,47.1-54.9
			c9.2-56,58.5-98,115.4-98c36.4,0,70.1,16.5,92.5,45.4c27.2,4,47.5,27.4,47.5,54.9c0,4.8-0.6,9.6-1.9,14.3
			c19.6,6.4,33,24.8,33,45.7c0,26.5-21.6,48.1-48.1,48.1h-49.7C1197.2,335.9,1171.2,345,1144.6,345z M1144.6,116.8
			c-54.7,0-101.9,40.9-109.8,95.1c-0.2,1.4-1.3,2.4-2.7,2.6c-25.1,2.7-44,23.9-44,49.2c0,27.3,22.2,49.5,49.5,49.5h34.8
			c0.7,0,1.4,0.2,1.9,0.7c19.8,16.2,44.7,25.1,70.3,25.1c25.6,0,50.5-8.9,70.3-25.1c0.5-0.4,1.2-0.7,1.9-0.7h50.7
			c23.2,0,42.1-18.9,42.1-42.1c0-19.1-12.9-35.9-31.5-40.7c-0.8-0.2-1.5-0.7-1.9-1.5c-0.4-0.7-0.5-1.6-0.2-2.4
			c1.6-5,2.5-10.2,2.5-15.4c0-24.9-18.7-46.1-43.4-49.1c-0.8-0.1-1.6-0.5-2.1-1.2C1211.7,132.9,1179.5,116.8,1144.6,116.8z"/>
	</g>
	<g>
		<path fill="#A9DDFF" d="M1278.9,502.1c1.7-5.1,2.6-10.6,2.6-16.3c0-26.8-20.1-48.9-46.1-52.1c-20.8-27.4-53.7-45.2-90.8-45.2
			c-57.4,0-104.8,42.5-112.8,97.7c-26.3,2.9-46.7,25.1-46.7,52.2c0,29,23.5,52.5,52.5,52.5h34.8c19.7,16.1,44.8,25.8,72.2,25.8
			c27.4,0,52.6-9.7,72.2-25.8h50.7c24.9,0,45.1-20.2,45.1-45.1C1312.6,524.7,1298.3,507.2,1278.9,502.1z"/>
		<path d="M1144.6,619.7c-26.6,0-52.6-9.2-73.3-25.8h-33.7c-30.6,0-55.6-24.9-55.6-55.6c0-27.6,20.1-50.8,47.1-54.9
			c9.2-56,58.5-98,115.4-98c36.4,0,70.1,16.5,92.5,45.4c27.2,4,47.5,27.4,47.5,54.9c0,4.8-0.6,9.6-1.9,14.3
			c19.6,6.4,33,24.8,33,45.7c0,26.5-21.6,48.1-48.1,48.1h-49.7C1197.2,610.5,1171.2,619.7,1144.6,619.7z M1144.6,391.5
			c-54.7,0-101.9,40.9-109.8,95.1c-0.2,1.4-1.3,2.4-2.7,2.6c-25.1,2.7-44,23.9-44,49.2c0,27.3,22.2,49.5,49.5,49.5h34.8
			c0.7,0,1.4,0.2,1.9,0.7c19.8,16.2,44.7,25.1,70.3,25.1c25.6,0,50.5-8.9,70.3-25.1c0.5-0.4,1.2-0.7,1.9-0.7h50.7
			c23.2,0,42.1-18.9,42.1-42.1c0-19.1-12.9-35.9-31.5-40.7c-0.8-0.2-1.5-0.7-1.9-1.5s-0.5-1.6-0.2-2.4c1.6-5,2.5-10.2,2.5-15.4
			c0-24.9-18.7-46-43.4-49.1c-0.8-0.1-1.6-0.5-2.1-1.2C1211.7,407.6,1179.5,391.5,1144.6,391.5z"/>
	</g>
	<g>
		<path fill="#FFFFFF" d="M1225.5,502.5c0,44.7-36.2,80.9-80.9,80.9c-44.7,0-80.9-36.2-80.9-80.9c0-44.7,36.2-80.9,80.9-80.9
			C1189.3,421.7,1225.5,457.9,1225.5,502.5z"/>
		<path d="M1144.6,586.4c-46.3,0-83.9-37.6-83.9-83.9s37.6-83.9,83.9-83.9c46.3,0,83.9,37.6,83.9,83.9S1190.9,586.4,1144.6,586.4z
			 M1144.6,424.7c-42.9,0-77.8,34.9-77.8,77.8s34.9,77.8,77.8,77.8c42.9,0,77.8-34.9,77.8-77.8S1187.5,424.7,1144.6,424.7z"/>
	</g>
	<g>
		<path fill="#A9DDFF" d="M1278.9,776.8c1.7-5.1,2.6-10.6,2.6-16.3c0-26.8-20.1-48.9-46.1-52.1c-20.8-27.4-53.7-45.2-90.8-45.2
			c-57.4,0-104.8,42.5-112.8,97.7c-26.3,2.9-46.7,25.1-46.7,52.2c0,29,23.5,52.5,52.5,52.5h34.8c19.7,16.1,44.8,25.8,72.2,25.8
			c27.4,0,52.6-9.7,72.2-25.8h50.7c24.9,0,45.1-20.2,45.1-45.1C1312.6,799.4,1298.3,781.8,1278.9,776.8z"/>
		<path d="M1144.6,894.3c-26.6,0-52.6-9.2-73.3-25.8h-33.7c-30.6,0-55.6-24.9-55.6-55.6c0-27.6,20.1-50.8,47.1-54.9
			c9.2-56,58.5-98,115.4-98c36.4,0,70.1,16.5,92.5,45.4c27.2,4,47.5,27.4,47.5,54.9c0,4.8-0.6,9.6-1.9,14.3
			c19.6,6.4,33,24.8,33,45.7c0,26.5-21.6,48.1-48.1,48.1h-49.7C1197.2,885.2,1171.2,894.3,1144.6,894.3z M1144.6,666.2
			c-54.7,0-101.9,40.9-109.8,95.1c-0.2,1.4-1.3,2.4-2.7,2.6c-25.1,2.7-44,23.9-44,49.2c0,27.3,22.2,49.5,49.5,49.5h34.8
			c0.7,0,1.4,0.2,1.9,0.7c19.8,16.2,44.7,25.1,70.3,25.1c25.6,0,50.5-8.9,70.3-25.1c0.5-0.4,1.2-0.7,1.9-0.7h50.7
			c23.2,0,42.1-18.9,42.1-42.1c0-19.1-12.9-35.9-31.5-40.7c-0.8-0.2-1.5-0.7-1.9-1.5s-0.5-1.6-0.2-2.4c1.6-5,2.5-10.2,2.5-15.4
			c0-24.9-18.7-46-43.4-49.1c-0.8-0.1-1.6-0.5-2.1-1.2C1211.7,682.2,1179.5,666.2,1144.6,666.2z"/>
	</g>
	<g>
		<path fill="#FFFFFF" d="M1225.5,777.2c0,44.7-36.2,80.9-80.9,80.9c-44.7,0-80.9-36.2-80.9-80.9c0-44.7,36.2-80.9,80.9-80.9
			C1189.3,696.3,1225.5,732.5,1225.5,777.2z"/>
		<path d="M1144.6,861.1c-46.3,0-83.9-37.6-83.9-83.9s37.6-83.9,83.9-83.9c46.3,0,83.9,37.6,83.9,83.9S1190.9,861.1,1144.6,861.1z
			 M1144.6,699.4c-42.9,0-77.8,34.9-77.8,77.8s34.9,77.8,77.8,77.8c42.9,0,77.8-34.9,77.8-77.8S1187.5,699.4,1144.6,699.4z"/>
	</g>
	<g>
		<polygon fill="#F1F2F2" points="1144,444.1 1097.9,493.2 1108.2,493.2 1108.2,554.3 1131.1,554.3 1131.1,527.5 1154.5,527.5 
			1154.5,554.3 1179.7,554.3 1179.7,493.2 1190,493.2 		"/>
		<path d="M1179.7,557.4h-25.3c-1.7,0-3-1.4-3-3v-23.8h-17.3v23.8c0,1.7-1.4,3-3,3h-22.9c-1.7,0-3-1.4-3-3v-58.1h-7.2
			c-1.2,0-2.3-0.7-2.8-1.8c-0.5-1.1-0.3-2.4,0.6-3.3l46-49.1c1.1-1.2,3.3-1.2,4.4,0l46,49.1c0.8,0.9,1.1,2.2,0.6,3.3
			c-0.5,1.1-1.6,1.8-2.8,1.8h-7.2v58.1C1182.8,556,1181.4,557.4,1179.7,557.4z M1157.5,551.3h19.2v-58.1c0-1.7,1.4-3,3-3h3.2
			l-39-41.6l-39,41.6h3.2c1.7,0,3,1.4,3,3v58.1h16.9v-23.8c0-1.7,1.4-3,3-3h23.4c1.7,0,3,1.4,3,3V551.3z"/>
	</g>
	<g>
		<path fill="#FFFFFF" d="M553.4,484v46.8c0,7.5,6.1,13.6,13.6,13.6h37.8c7.5,0,13.6-6.1,13.6-13.6V484H553.4z"/>
		<path d="M604.7,547.4H567c-9.2,0-16.6-7.5-16.6-16.6V484c0-1.7,1.4-3,3-3h64.9c1.7,0,3,1.4,3,3v46.8
			C621.3,539.9,613.9,547.4,604.7,547.4z M556.4,487v43.7c0,5.8,4.7,10.6,10.6,10.6h37.8c5.8,0,10.5-4.7,10.5-10.6V487H556.4z"/>
	</g>
	<g>
		<path d="M612.5,487c-1.7,0-3-1.4-3-3v-22.4c0-12.6-10.3-22.9-22.9-22.9h-1.4c-12.6,0-22.9,10.3-22.9,22.9V484c0,1.7-1.4,3-3,3
			s-3-1.4-3-3v-22.4c0-16,13-29,29-29h1.4c16,0,29,13,29,29V484C615.6,485.7,614.2,487,612.5,487z"/>
	</g>
	<g>
		<path d="M585.8,529.7c-1.7,0-3-1.4-3-3v-24.9c0-1.7,1.4-3,3-3c1.7,0,3,1.4,3,3v24.9C588.9,528.3,587.5,529.7,585.8,529.7z"/>
	</g>
	<g>
		<path fill="#FFFFFF" d="M1225.5,227.9c0-44.7-36.2-80.9-80.9-80.9c-44.7,0-80.9,36.2-80.9,80.9c0,36.9,24.7,68,58.5,77.7v-45.5
			h-0.2l-22.6-39.1l22.6-39.1h4.3v44.7h36.5v-44.7h4.3l22.6,39.1l-22.6,39.1h-0.2v45.5C1200.7,295.9,1225.5,264.8,1225.5,227.9z"/>
		<path d="M1166.9,308.6c-0.7,0-1.3-0.2-1.8-0.6c-0.8-0.6-1.2-1.5-1.2-2.4v-45.5c0-0.9,0.4-1.8,1.1-2.4l21.2-36.7l-20.4-35.3v40.8
			c0,1.7-1.4,3-3,3h-36.5c-1.7,0-3-1.4-3-3v-40.8l-20.4,35.3l21.4,37c0.6,0.5,1,1.3,1,2.1v45.5c0,1-0.5,1.9-1.2,2.4
			c-0.8,0.6-1.8,0.7-2.7,0.5c-35.7-10.3-60.7-43.4-60.7-80.6c0-46.3,37.6-83.9,83.9-83.9c46.3,0,83.9,37.6,83.9,83.9
			c0,37.2-25,70.3-60.7,80.6C1167.5,308.6,1167.2,308.6,1166.9,308.6z M1170,261.3v40.1c31.1-10.7,52.4-40.4,52.4-73.5
			c0-42.9-34.9-77.8-77.8-77.8c-42.9,0-77.8,34.9-77.8,77.8c0,33.1,21.4,62.8,52.4,73.5v-40.2l-22.4-38.8c-0.5-0.9-0.5-2.1,0-3
			l22.6-39.1c0.5-0.9,1.5-1.5,2.6-1.5h4.3c1.7,0,3,1.4,3,3v41.6h30.4v-41.6c0-1.7,1.4-3,3-3h4.3c1.1,0,2.1,0.6,2.6,1.5l22.6,39.1
			c0.5,0.9,0.5,2.1,0,3L1170,261.3z"/>
	</g>
	<g>
		<path fill="#F1F2F2" d="M1167.2,260.1l22.6-39.1l-22.6-39.1h-4.3v44.7h-36.5v-44.7h-4.3l-22.6,39.1l22.6,39.1h0.2v45.5
			c7.1,2,14.6,3.2,22.4,3.2c7.8,0,15.2-1.2,22.3-3.2v-45.5H1167.2z"/>
		<path d="M1144.6,311.8c-7.7,0-15.5-1.1-23.2-3.3c-1.3-0.4-2.2-1.6-2.2-2.9v-44.3l-22.4-38.8c-0.5-0.9-0.5-2.1,0-3l22.6-39.1
			c0.5-0.9,1.5-1.5,2.6-1.5h4.3c1.7,0,3,1.4,3,3v41.6h30.4v-41.6c0-1.7,1.4-3,3-3h4.3c1.1,0,2.1,0.6,2.6,1.5l22.6,39.1
			c0.5,0.9,0.5,2.1,0,3l-22.4,38.8v44.3c0,1.4-0.9,2.5-2.2,2.9C1160.1,310.7,1152.3,311.8,1144.6,311.8z M1125.3,303.2
			c12.8,3.3,25.8,3.3,38.6,0v-43.2c0-0.9,0.4-1.8,1.1-2.4l21.2-36.7l-20.4-35.3v40.8c0,1.7-1.4,3-3,3h-36.5c-1.7,0-3-1.4-3-3v-40.8
			l-20.4,35.3l21.4,37c0.6,0.5,1,1.3,1,2.1V303.2z"/>
	</g>
	<g>
		<path fill="#FFFFFF" d="M867.7,231.6c0-23.6-19.1-42.7-42.7-42.7c-23.6,0-42.7,19.1-42.7,42.7c0,7.5,1.9,14.5,5.3,20.6l0,0
			l0.1,0.1c0.4,0.8,0.9,1.5,1.3,2.2l36,60.3l36-60.3c0.5-0.7,0.9-1.5,1.3-2.2l0.1-0.1l0,0C865.8,246,867.7,239,867.7,231.6z
			 M825,256.8c-14,0-25.4-11.4-25.4-25.4S810.9,206,825,206c14,0,25.4,11.4,25.4,25.4S839,256.8,825,256.8z"/>
		<path d="M825,317.8c-1.1,0-2.1-0.6-2.6-1.5l-36-60.3c-0.5-0.7-0.9-1.5-1.4-2.3c-3.8-6.8-5.7-14.5-5.7-22.1
			c0-25.2,20.5-45.7,45.7-45.7c25.2,0,45.7,20.5,45.7,45.7c0,7.7-2,15.3-5.6,22c-0.5,0.9-1,1.7-1.5,2.5l-36,60.3
			C827,317.3,826,317.8,825,317.8z M825,191.9c-21.9,0-39.7,17.8-39.7,39.7c0,6.7,1.7,13.3,4.9,19.1c0.5,0.8,0.9,1.5,1.3,2.2
			l33.5,56l33.4-56c0.5-0.7,0.9-1.4,1.3-2.2c3.3-5.9,5-12.5,5-19.2C864.6,209.7,846.8,191.9,825,191.9z M825,259.8
			c-15.7,0-28.4-12.8-28.4-28.4S809.3,203,825,203c15.7,0,28.4,12.8,28.4,28.4S840.6,259.8,825,259.8z M825,209
			c-12.3,0-22.4,10-22.4,22.4s10,22.4,22.4,22.4c12.3,0,22.4-10,22.4-22.4S837.3,209,825,209z"/>
	</g>
	<g>
		<g>
			<g>
				<path fill="#FFFFFF" d="M893.9,462.1c-0.1-0.1-0.3-0.2-0.7-0.2l-1.8,0c-29.2,0-43-13.8-43.6-14.4c-0.1-0.1-0.4-0.2-0.6-0.2v97.9
					c0.1,0,0.2,0,0.3-0.1c16.9-7,27.6-20.5,34.5-34.6c4.3-8.8,7-17.7,8.8-25.5c2.8-12.1,3.2-21.4,3.2-22.3
					C894.1,462.5,894,462.3,893.9,462.1z"/>
				<path d="M847.3,548.3c-1.7,0-3-1.4-3-3v-97.9c0-1.7,1.4-3,3-3c1.1,0,2.1,0.4,2.8,1.2c0.5,0.5,13.5,13.5,41.4,13.5l1.7,0
					c0.8,0.1,1.9,0.2,2.8,1.1c0.9,1,1.2,2,1.2,3c0,0.3-0.3,10-3.3,22.9c-2.2,9.5-5.2,18.3-9.1,26.2c-8.5,17.5-20.7,29.6-36.1,36.1
					C848.4,548.1,847.7,548.3,847.3,548.3z M850.3,453.4v87.2c12.2-6.2,21.9-16.7,29-31.3c3.6-7.4,6.5-15.8,8.6-24.9
					c2-8.7,2.7-15.9,3-19.4C870.2,464.8,856.8,457.9,850.3,453.4z"/>
			</g>
			<g>
				<path fill="#FFFFFF" d="M847.3,447.3c-0.2,0-0.5,0.1-0.6,0.2c-0.6,0.6-14.4,14.4-43.6,14.4l-1.7,0c-0.5,0-0.7,0.2-0.7,0.2
					c-0.2,0.2-0.2,0.4-0.2,0.6c0,1,0.4,10.2,3.2,22.3c1.8,7.8,4.5,16.8,8.8,25.5c6.9,14,17.6,27.5,34.6,34.6c0.1,0,0.2,0.1,0.3,0.1
					c0,0,0,0,0,0L847.3,447.3C847.3,447.3,847.3,447.3,847.3,447.3z"/>
				<path d="M847.3,548.3c-0.5,0-1.3-0.2-1.8-0.5c-15.1-6.3-27.2-18.4-35.8-35.9c-3.9-7.9-6.9-16.7-9-26.2
					c-2.9-12.8-3.3-22.5-3.3-22.9c-0.1-0.9,0.3-2,1-2.8c0.7-0.7,1.6-1.1,2.7-1.2l2.1,0c27.8,0,40.8-12.9,41.4-13.5
					c0.6-0.7,1.6-1.1,2.8-1.1c1.7,0,3,1.4,3,3l0,97.9c0,0.8-0.3,1.6-0.9,2.1C848.8,548,848.1,548.3,847.3,548.3z M803.6,464.9
					c0.3,3.6,1,10.7,3,19.4c2,9,4.9,17.4,8.6,24.9c7.1,14.6,16.9,25.1,29.1,31.3v-87.2C837.7,457.9,824.3,464.8,803.6,464.9z"/>
			</g>
		</g>
		<g>
			<line fill="#FFFFFF" x1="847.3" y1="473.9" x2="865.1" y2="473.9"/>
			<path d="M865.1,477h-17.8c-1.7,0-3-1.4-3-3c0-1.7,1.4-3,3-3h17.8c1.7,0,3,1.4,3,3C868.1,475.6,866.7,477,865.1,477z"/>
		</g>
		<g>
			<line fill="#FFFFFF" x1="847.3" y1="496.3" x2="865.1" y2="496.3"/>
			<path d="M865.1,499.3h-17.8c-1.7,0-3-1.4-3-3c0-1.7,1.4-3,3-3h17.8c1.7,0,3,1.4,3,3C868.1,497.9,866.7,499.3,865.1,499.3z"/>
		</g>
		<g>
			<line fill="#FFFFFF" x1="847.3" y1="518.6" x2="865.1" y2="518.6"/>
			<path d="M865.1,521.6h-17.8c-1.7,0-3-1.4-3-3c0-1.7,1.4-3,3-3h17.8c1.7,0,3,1.4,3,3C868.1,520.3,866.7,521.6,865.1,521.6z"/>
		</g>
	</g>
	<g>
		<path d="M985.8,254.9h-86.1c-1.7,0-3-1.4-3-3s1.4-3,3-3h86.1c1.7,0,3,1.4,3,3S987.4,254.9,985.8,254.9z"/>
	</g>
	<g>
		<path d="M985.8,258.5c-1.7,0-3-1.4-3-3v-3.6c0-1.7,1.4-3,3-3c1.7,0,3,1.4,3,3v3.6C988.8,257.2,987.4,258.5,985.8,258.5z"/>
	</g>
	<g>
		<path d="M1014.9,494h-93c-1.7,0-3-1.4-3-3c0-1.7,1.4-3,3-3h93c1.7,0,3,1.4,3,3C1018,492.6,1016.6,494,1014.9,494z"/>
	</g>
	<g>
		<path d="M1041.7,731.2H899.7c-1.7,0-3-1.4-3-3c0-1.7,1.4-3,3-3h142.1c1.7,0,3,1.4,3,3C1044.7,729.8,1043.4,731.2,1041.7,731.2z"/>
	</g>
	<g>
		<g>
			<path fill="#F1F2F2" d="M1173.4,777.8c0,9.3-1.6,18.3-4.5,26.6c5.3,1.7,10.3,3.9,15,6.6c7.5-9,12.1-20.5,12.1-33.1
				c0-12.6-4.5-24.2-12.1-33.1c-4.7,2.7-9.8,4.9-15,6.6C1171.8,759.6,1173.4,768.5,1173.4,777.8z"/>
			<path d="M1184,814c-0.5,0-1-0.1-1.5-0.4c-4.6-2.6-9.5-4.7-14.5-6.3c-0.8-0.3-1.4-0.8-1.8-1.5c-0.4-0.7-0.4-1.6-0.1-2.4
				c2.9-8.2,4.3-16.8,4.3-25.6s-1.5-17.3-4.3-25.6c-0.3-0.8-0.2-1.6,0.1-2.4c0.4-0.7,1-1.3,1.8-1.5c5-1.6,9.9-3.7,14.5-6.3
				c1.3-0.7,2.9-0.4,3.8,0.7c8.3,9.8,12.8,22.3,12.8,35.1c0,12.8-4.5,25.3-12.8,35.1C1185.7,813.6,1184.8,814,1184,814z
				 M1172.7,802.5c3.6,1.3,7.1,2.8,10.4,4.6c6.4-8.4,9.8-18.7,9.8-29.3c0-10.6-3.5-20.9-9.8-29.3c-3.4,1.8-6.9,3.3-10.4,4.6
				c2.5,8,3.7,16.3,3.7,24.7S1175.2,794.5,1172.7,802.5z"/>
		</g>
		<g>
			<path fill="#F1F2F2" d="M1155.8,727.6c5.6,7,10.1,15,13.1,23.7c5.3-1.7,10.3-3.9,15-6.6C1176.8,736.2,1167,730.1,1155.8,727.6z"
				/>
			<path d="M1168.9,754.3c-1.3,0-2.4-0.8-2.9-2c-2.9-8.3-7.2-15.9-12.6-22.8c-0.8-1-0.9-2.4-0.2-3.5c0.7-1.1,2-1.6,3.2-1.4
				c11.6,2.6,22.2,9,29.9,18.1c0.6,0.7,0.8,1.6,0.7,2.5c-0.2,0.9-0.7,1.7-1.5,2.1c-5,2.8-10.2,5.1-15.6,6.8
				C1169.5,754.2,1169.2,754.3,1168.9,754.3z M1163.6,733.3c2.8,4.5,5.2,9.2,7.2,14.1c2.8-1,5.6-2.2,8.3-3.6
				C1174.6,739.3,1169.3,735.7,1163.6,733.3z"/>
		</g>
		<g>
			<path fill="#F1F2F2" d="M1155.8,828c11.2-2.5,21-8.6,28.2-17.1c-4.7-2.7-9.8-4.9-15-6.6C1165.9,813.1,1161.4,821,1155.8,828z"/>
			<path d="M1155.8,831.1c-1,0-2-0.5-2.6-1.4c-0.7-1.1-0.6-2.5,0.2-3.5c5.5-6.8,9.7-14.5,12.6-22.8c0.5-1.5,2.2-2.4,3.8-1.9
				c5.4,1.7,10.6,4,15.6,6.8c0.8,0.4,1.3,1.2,1.5,2.1s-0.1,1.8-0.7,2.5c-7.7,9.1-18.3,15.5-29.9,18.1
				C1156.2,831.1,1156,831.1,1155.8,831.1z M1170.7,808.2c-1.9,4.9-4.3,9.7-7.2,14.1c5.8-2.5,11.1-6.1,15.5-10.6
				C1176.4,810.4,1173.6,809.2,1170.7,808.2z"/>
		</g>
		<g>
			<path fill="#F1F2F2" d="M1115.7,777.8c0-9.3,1.6-18.3,4.5-26.6c-5.3-1.7-10.3-3.9-15-6.6c-7.5,9-12.1,20.5-12.1,33.1
				c0,12.6,4.6,24.2,12.1,33.1c4.7-2.7,9.8-4.9,15-6.6C1117.3,796.1,1115.7,787.1,1115.7,777.8z"/>
			<path d="M1105.2,814c-0.9,0-1.7-0.4-2.3-1.1c-8.3-9.8-12.8-22.3-12.8-35.1c0-12.8,4.5-25.3,12.8-35.1c0.9-1.1,2.5-1.4,3.8-0.7
				c4.6,2.6,9.5,4.7,14.5,6.3c0.8,0.2,1.4,0.8,1.8,1.5c0.4,0.7,0.4,1.6,0.1,2.4c-2.9,8.2-4.3,16.8-4.3,25.6s1.5,17.4,4.3,25.6
				c0.3,0.8,0.2,1.6-0.1,2.4c-0.4,0.7-1,1.3-1.8,1.5c-5,1.6-9.9,3.7-14.5,6.3C1106.2,813.9,1105.7,814,1105.2,814z M1106,748.6
				c-6.4,8.4-9.8,18.7-9.8,29.3s3.5,20.9,9.8,29.3c3.4-1.8,6.9-3.3,10.4-4.6c-2.5-8-3.7-16.3-3.7-24.7c0-8.4,1.3-16.7,3.7-24.7
				C1112.9,751.9,1109.4,750.3,1106,748.6z"/>
		</g>
		<g>
			<path fill="#F1F2F2" d="M1120.3,751.2c-2.9,8.3-4.5,17.3-4.5,26.6c0,9.3,1.6,18.3,4.5,26.6c7.7-2.4,15.8-3.8,24.3-3.8
				c8.5,0,16.7,1.3,24.3,3.8c2.9-8.3,4.5-17.3,4.5-26.6c0-9.3-1.6-18.3-4.5-26.6c-7.7,2.4-15.8,3.8-24.3,3.8
				C1136.1,755,1127.9,753.7,1120.3,751.2z"/>
			<path d="M1120.3,807.4c-1.3,0-2.4-0.8-2.9-2c-3.1-8.9-4.7-18.1-4.7-27.6s1.6-18.7,4.7-27.6c0.5-1.5,2.2-2.4,3.8-1.9
				c15.1,4.8,31.7,4.8,46.8,0c1.6-0.5,3.2,0.3,3.8,1.9c3.1,8.9,4.7,18.2,4.7,27.6s-1.6,18.7-4.7,27.6c-0.5,1.5-2.2,2.4-3.8,1.9
				c-15.1-4.8-31.7-4.8-46.8,0C1120.9,807.4,1120.6,807.4,1120.3,807.4z M1122.2,755c-2.3,7.4-3.4,15-3.4,22.8
				c0,7.8,1.2,15.4,3.4,22.8c14.5-4,30.2-4,44.7,0c2.3-7.4,3.4-15.1,3.4-22.8c0-7.8-1.2-15.4-3.4-22.8
				C1152.4,759,1136.7,759,1122.2,755z"/>
		</g>
		<g>
			<path fill="#F1F2F2" d="M1133.4,727.6c-11.2,2.5-21,8.6-28.2,17.1c4.7,2.7,9.8,4.9,15,6.6
				C1123.3,742.6,1127.8,734.6,1133.4,727.6z"/>
			<path d="M1120.3,754.3c-0.3,0-0.6,0-0.9-0.1c-5.4-1.7-10.6-4-15.6-6.8c-0.8-0.4-1.3-1.2-1.5-2.1c-0.2-0.9,0.1-1.8,0.7-2.5
				c7.7-9.1,18.3-15.5,29.9-18.1c1.3-0.3,2.5,0.3,3.2,1.4c0.7,1.1,0.6,2.5-0.2,3.5c-5.5,6.8-9.8,14.5-12.6,22.8
				C1122.7,753.5,1121.5,754.3,1120.3,754.3z M1110.1,743.8c2.7,1.4,5.5,2.6,8.3,3.6c1.9-4.9,4.3-9.7,7.2-14.1
				C1119.8,735.7,1114.5,739.3,1110.1,743.8z"/>
		</g>
		<g>
			<path fill="#F1F2F2" d="M1144.6,755c8.5,0,16.7-1.3,24.3-3.8c-3-8.7-7.5-16.6-13.1-23.7c-3.6-0.8-7.3-1.2-11.2-1.2
				c-3.8,0-7.6,0.4-11.2,1.2c-5.6,7-10.1,15-13.1,23.7C1127.9,753.7,1136.1,755,1144.6,755z"/>
			<path d="M1144.6,758c-8.6,0-17.1-1.3-25.2-3.9c-0.8-0.2-1.4-0.8-1.8-1.5c-0.4-0.7-0.4-1.6-0.1-2.4c3.1-8.9,7.7-17.2,13.6-24.6
				c0.4-0.5,1-0.9,1.7-1.1c7.8-1.7,15.9-1.7,23.7,0c0.7,0.1,1.3,0.5,1.7,1.1c5.9,7.4,10.5,15.6,13.6,24.5c0.3,0.8,0.2,1.6-0.1,2.4
				c-0.4,0.7-1,1.3-1.8,1.5C1161.7,756.7,1153.2,758,1144.6,758z M1124.2,749.2c13.2,3.6,27.5,3.6,40.7,0
				c-2.7-6.8-6.4-13.1-10.9-18.9c-6.3-1.3-12.7-1.3-19,0C1130.6,736.1,1126.9,742.5,1124.2,749.2z"/>
		</g>
		<g>
			<path fill="#F1F2F2" d="M1105.2,810.9c7.1,8.5,17,14.6,28.2,17.1c-5.6-7-10.1-15-13.1-23.7C1115,806.1,1110,808.3,1105.2,810.9z"
				/>
			<path d="M1133.4,831.1c-0.2,0-0.4,0-0.7-0.1c-11.6-2.6-22.2-9-29.9-18.1c-0.6-0.7-0.8-1.6-0.7-2.5c0.2-0.9,0.7-1.7,1.5-2.1
				c5-2.8,10.2-5.1,15.6-6.8c1.6-0.5,3.2,0.3,3.8,1.9c2.9,8.2,7.1,15.9,12.6,22.8c0.8,1,0.9,2.4,0.2,3.5
				C1135.4,830.6,1134.4,831.1,1133.4,831.1z M1110.1,811.8c4.4,4.5,9.7,8.1,15.5,10.6c-2.8-4.5-5.2-9.2-7.2-14.1
				C1115.6,809.2,1112.8,810.4,1110.1,811.8z"/>
		</g>
		<g>
			<path fill="#F1F2F2" d="M1144.6,800.6c-8.5,0-16.7,1.3-24.3,3.8c3,8.7,7.5,16.6,13.1,23.7c3.6,0.8,7.3,1.2,11.2,1.2
				c3.8,0,7.6-0.4,11.2-1.2c5.6-7,10.1-15,13.1-23.7C1161.2,802,1153.1,800.6,1144.6,800.6z"/>
			<path d="M1144.6,832.3c-4,0-7.9-0.4-11.8-1.3c-0.7-0.1-1.3-0.5-1.7-1.1c-5.9-7.4-10.5-15.7-13.6-24.6c-0.3-0.8-0.2-1.6,0.1-2.4
				c0.4-0.7,1-1.3,1.8-1.5c16.3-5.2,34.2-5.2,50.5,0c0.8,0.3,1.4,0.8,1.8,1.5c0.4,0.7,0.4,1.6,0.1,2.4c-3.1,8.9-7.7,17.2-13.6,24.5
				c-0.4,0.5-1,0.9-1.7,1.1C1152.5,831.9,1148.5,832.3,1144.6,832.3z M1135.1,825.3c6.3,1.3,12.7,1.3,19,0
				c4.5-5.8,8.2-12.1,10.9-18.9c-13.2-3.6-27.5-3.6-40.7,0C1126.9,813.2,1130.6,819.5,1135.1,825.3z"/>
		</g>
	</g>
	<g>
		<path fill="#FFFFFF" d="M868,702.8l-3-3c-1.3-1.3-2.8-2.5-4.3-3.4c-2.8-1.8-5.8-2.9-9-3.5c-7.8-1.4-16.1,0.9-22.1,6.9l-4.7,4.7
			l-4.7-4.7c-6-6-14.3-8.3-22.1-6.9c-3.1,0.6-6.2,1.7-9,3.5c-1.5,1-3,2.1-4.3,3.4l-2.9,3c-9.8,9.8-9.8,25.6,0,35.4l4.7,4.7
			l38.4,38.4l38.4-38.4l4.7-4.7C877.8,728.5,877.8,712.6,868,702.8z"/>
		<path d="M825,784.3c-0.8,0-1.6-0.3-2.1-0.9l-43-43c-5.3-5.3-8.2-12.3-8.2-19.8c0-7.5,2.9-14.5,8.2-19.8l2.9-3
			c1.4-1.4,3.1-2.7,4.8-3.9c3.1-2,6.5-3.3,10.1-3.9c9.1-1.6,18.3,1.3,24.8,7.8l2.5,2.5l2.5-2.5c6.5-6.5,15.8-9.4,24.8-7.8
			c3.6,0.6,7,2,10.1,3.9c1.8,1.2,3.4,2.4,4.9,3.9l3,2.9c10.9,10.9,10.9,28.8,0,39.7l-43,43C826.5,784,825.7,784.3,825,784.3z
			 M802.6,695.6c-1.3,0-2.6,0.1-3.9,0.3c-2.8,0.5-5.5,1.5-7.9,3.1c-1.4,0.9-2.7,1.9-3.8,3l-2.9,3c-4.2,4.2-6.5,9.7-6.5,15.6
			c0,5.9,2.3,11.4,6.5,15.6L825,777l40.9-40.9c8.6-8.6,8.6-22.5,0-31.1l-3-3c-1.1-1.1-2.3-2.1-3.8-3c-2.4-1.5-5.1-2.6-7.9-3.1
			c-7.1-1.3-14.4,1-19.4,6.1l-4.7,4.7c-1.2,1.2-3.1,1.2-4.3,0l-4.7-4.7C814,697.9,808.5,695.6,802.6,695.6z"/>
	</g>
	<g>
		<g>
			<path fill="#FFFFFF" d="M222.5,269.4c0,7,5.7,12.7,12.8,12.7h337.8c7,0,12.8-5.7,12.8-12.7v-48.2c0-7-5.7-12.8-12.8-12.8H235.3
				c-7,0-12.8,5.7-12.8,12.8V269.4z"/>
		</g>
		<g>
			<path d="M573.1,285.2H235.3c-8.7,0-15.8-7.1-15.8-15.8v-48.2c0-8.7,7.1-15.8,15.8-15.8h337.8c8.7,0,15.8,7.1,15.8,15.8v48.2
				C588.9,278.1,581.8,285.2,573.1,285.2z M235.3,211.5c-5.4,0-9.7,4.4-9.7,9.7v48.2c0,5.4,4.4,9.7,9.7,9.7h337.8
				c5.4,0,9.7-4.4,9.7-9.7v-48.2c0-5.4-4.4-9.7-9.7-9.7H235.3z"/>
		</g>
	</g>
	<g>
		<g>
			<path fill="#FFFFFF" d="M164.7,232.6c0,16.4-13.3,29.7-29.7,29.7c-16.4,0-29.7-13.3-29.7-29.7c0-16.4,13.3-29.7,29.7-29.7
				C151.4,202.8,164.7,216.1,164.7,232.6z"/>
			<path d="M134.9,265.3c-18.1,0-32.8-14.7-32.8-32.8c0-18.1,14.7-32.8,32.8-32.8s32.8,14.7,32.8,32.8
				C167.7,250.6,153,265.3,134.9,265.3z M134.9,205.9c-14.7,0-26.7,12-26.7,26.7c0,14.7,12,26.7,26.7,26.7c14.7,0,26.7-12,26.7-26.7
				C161.7,217.8,149.7,205.9,134.9,205.9z"/>
		</g>
		<g>
			<path d="M190.2,290.8c-0.8,0-1.6-0.3-2.1-0.9l-34.2-34.2c-1.2-1.2-1.2-3.1,0-4.3c1.2-1.2,3.1-1.2,4.3,0l34.2,34.2
				c1.2,1.2,1.2,3.1,0,4.3C191.7,290.5,191,290.8,190.2,290.8z"/>
		</g>
	</g>
	<g>
		<polygon fill="#FFB2AD" points="222.5,83.7 285.6,120.1 222.5,156.5 		"/>
		<path d="M222.5,159.5c-0.5,0-1-0.1-1.5-0.4c-0.9-0.5-1.5-1.5-1.5-2.6V83.7c0-1.1,0.6-2.1,1.5-2.6c0.9-0.5,2.1-0.5,3,0l63,36.4
			c0.9,0.5,1.5,1.5,1.5,2.6c0,1.1-0.6,2.1-1.5,2.6l-63,36.4C223.6,159.4,223.1,159.5,222.5,159.5z M225.6,89v62.2l53.9-31.1
			L225.6,89z"/>
	</g>
	<g>
		<polygon fill="#FFB2AD" points="343.7,83.7 406.8,120.1 343.7,156.5 		"/>
		<path d="M343.7,159.5c-0.5,0-1-0.1-1.5-0.4c-0.9-0.5-1.5-1.5-1.5-2.6V83.7c0-1.1,0.6-2.1,1.5-2.6c0.9-0.5,2.1-0.5,3,0l63,36.4
			c0.9,0.5,1.5,1.5,1.5,2.6c0,1.1-0.6,2.1-1.5,2.6l-63,36.4C344.8,159.4,344.3,159.5,343.7,159.5z M346.8,89v62.2l53.9-31.1
			L346.8,89z"/>
	</g>
	<g>
		<polygon fill="#FFB2AD" points="464.9,83.7 528,120.1 464.9,156.5 		"/>
		<path d="M464.9,159.5c-0.5,0-1-0.1-1.5-0.4c-0.9-0.5-1.5-1.5-1.5-2.6V83.7c0-1.1,0.6-2.1,1.5-2.6c0.9-0.5,2.1-0.5,3,0l63,36.4
			c0.9,0.5,1.5,1.5,1.5,2.6c0,1.1-0.6,2.1-1.5,2.6l-63,36.4C466,159.4,465.5,159.5,464.9,159.5z M468,89v62.2l53.9-31.1L468,89z"/>
	</g>
	<g>
		<polygon fill="#FFB2AD" points="586.2,83.7 649.2,120.1 586.2,156.5 		"/>
		<path d="M586.2,159.5c-0.5,0-1-0.1-1.5-0.4c-0.9-0.5-1.5-1.5-1.5-2.6V83.7c0-1.1,0.6-2.1,1.5-2.6c0.9-0.5,2.1-0.5,3,0l63,36.4
			c0.9,0.5,1.5,1.5,1.5,2.6c0,1.1-0.6,2.1-1.5,2.6l-63,36.4C587.2,159.4,586.7,159.5,586.2,159.5z M589.2,89v62.2l53.9-31.1
			L589.2,89z"/>
	</g>
	<g>
		<polygon fill="#A9DDFF" points="213.7,711.2 213.7,842.7 618,842.7 618,815.7 679.2,861.9 618,908 618,884.9 213.7,884.9 
			166.6,884.9 166.6,842.7 166.6,711.2 		"/>
		<path d="M618,911.1c-0.5,0-0.9-0.1-1.4-0.3c-1-0.5-1.7-1.6-1.7-2.7V888H166.6c-1.7,0-3-1.4-3-3V711.2c0-1.7,1.4-3,3-3h47.1
			c1.7,0,3,1.4,3,3v128.5H615v-23.9c0-1.2,0.7-2.2,1.7-2.7c1-0.5,2.3-0.4,3.2,0.3l61.2,46.2c0.8,0.6,1.2,1.5,1.2,2.4
			c0,1-0.4,1.8-1.2,2.4l-61.2,46.2C619.3,910.9,618.7,911.1,618,911.1z M169.7,881.9H618c1.7,0,3,1.4,3,3v17l53.1-40.1l-53.1-40.1
			v20.9c0,1.7-1.4,3-3,3H213.7c-1.7,0-3-1.4-3-3V714.2h-41V881.9z"/>
	</g>
	<g>
		<rect x="324" y="662.8" fill="#FFFFFF" width="29.8" height="29.8"/>
		<path d="M353.8,695.6H324c-1.7,0-3-1.4-3-3v-29.8c0-1.7,1.4-3,3-3h29.8c1.7,0,3,1.4,3,3v29.8C356.8,694.2,355.5,695.6,353.8,695.6
			z M327.1,689.5h23.7v-23.7h-23.7V689.5z"/>
	</g>
</g>
</svg>
