<?xml version="1.0" encoding="utf-8"?>
<!-- Generator: Adobe Illustrator 16.0.0, SVG Export Plug-In . SVG Version: 6.00 Build 0)  -->
<!DOCTYPE svg PUBLIC "-//W3C//DTD SVG 1.1//EN" "http://www.w3.org/Graphics/SVG/1.1/DTD/svg11.dtd">
<svg version="1.1" id="Layer_1" xmlns="http://www.w3.org/2000/svg" xmlns:xlink="http://www.w3.org/1999/xlink" x="0px" y="0px"
	 width="1400px" height="980px" viewBox="0 0 1400 980" enable-background="new 0 0 1400 980" xml:space="preserve">
<g>
	<g>
		<g>
			<rect fill="#FFFFFF" width="1400" height="980"/>
		</g>
	</g>
	<g>
		<rect x="104.3" y="100.4" fill="#FFFFFF" width="349.5" height="209.5"/>
		<path d="M453.8,313.1H104.3c-1.7,0-3.1-1.4-3.1-3.1V100.4c0-1.7,1.4-3.1,3.1-3.1h349.5c1.7,0,3.1,1.4,3.1,3.1V310
			C457,311.7,455.6,313.1,453.8,313.1z M107.5,306.8h343.2V103.6H107.5V306.8z"/>
	</g>
	<g>
		<rect x="769.6" y="665" fill="#FFFFFF" width="525.3" height="209.5"/>
		<path d="M1295,877.6H769.6c-1.7,0-3.1-1.4-3.1-3.1V665c0-1.7,1.4-3.1,3.1-3.1H1295c1.7,0,3.1,1.4,3.1,3.1v209.5
			C1298.1,876.2,1296.7,877.6,1295,877.6z M772.8,871.4h519.1V668.1H772.8V871.4z"/>
	</g>
	<g>
		<g>
			<rect x="778" y="100.4" fill="#FFFFFF" width="377.3" height="454.7"/>
			<path d="M1155.3,558.3H778c-1.7,0-3.1-1.4-3.1-3.1V100.4c0-1.7,1.4-3.1,3.1-3.1h377.3c1.7,0,3.1,1.4,3.1,3.1v454.7
				C1158.4,556.9,1157,558.3,1155.3,558.3z M781.1,552h371V103.6h-371V552z"/>
		</g>
		<g>
			<path fill="#BCBEC0" d="M869,175.9c0,16.6-13.5,30.1-30.1,30.1c-16.6,0-30.1-13.5-30.1-30.1c0-16.6,13.5-30.1,30.1-30.1
				C855.5,145.9,869,159.3,869,175.9z"/>
			<path d="M838.9,209.2c-18.3,0-33.2-14.9-33.2-33.2c0-18.3,14.9-33.2,33.2-33.2c18.3,0,33.2,14.9,33.2,33.2
				C872.1,194.3,857.2,209.2,838.9,209.2z M838.9,149c-14.9,0-26.9,12.1-26.9,26.9c0,14.9,12.1,26.9,26.9,26.9
				c14.9,0,26.9-12.1,26.9-26.9C865.8,161.1,853.7,149,838.9,149z"/>
		</g>
		<g>
			<path fill="#BCBEC0" d="M954.8,175.9c0,16.6-13.5,30.1-30.1,30.1c-16.6,0-30.1-13.5-30.1-30.1c0-16.6,13.5-30.1,30.1-30.1
				C941.4,145.9,954.8,159.3,954.8,175.9z"/>
			<path d="M924.8,209.2c-18.3,0-33.2-14.9-33.2-33.2c0-18.3,14.9-33.2,33.2-33.2c18.3,0,33.2,14.9,33.2,33.2
				C958,194.3,943.1,209.2,924.8,209.2z M924.8,149c-14.9,0-26.9,12.1-26.9,26.9c0,14.9,12.1,26.9,26.9,26.9s26.9-12.1,26.9-26.9
				C951.7,161.1,939.6,149,924.8,149z"/>
		</g>
		<g>
			<path fill="#BCBEC0" d="M1040.7,175.9c0,16.6-13.5,30.1-30.1,30.1c-16.6,0-30.1-13.5-30.1-30.1c0-16.6,13.5-30.1,30.1-30.1
				C1027.3,145.9,1040.7,159.3,1040.7,175.9z"/>
			<path d="M1010.6,209.2c-18.3,0-33.2-14.9-33.2-33.2c0-18.3,14.9-33.2,33.2-33.2c18.3,0,33.2,14.9,33.2,33.2
				C1043.9,194.3,1029,209.2,1010.6,209.2z M1010.6,149c-14.9,0-26.9,12.1-26.9,26.9c0,14.9,12.1,26.9,26.9,26.9
				c14.9,0,26.9-12.1,26.9-26.9C1037.6,161.1,1025.5,149,1010.6,149z"/>
		</g>
		<g>
			<path fill="#BCBEC0" d="M1126.6,175.9c0,16.6-13.5,30.1-30.1,30.1c-16.6,0-30.1-13.5-30.1-30.1c0-16.6,13.5-30.1,30.1-30.1
				C1113.1,145.9,1126.6,159.3,1126.6,175.9z"/>
			<path d="M1096.5,209.2c-18.3,0-33.2-14.9-33.2-33.2c0-18.3,14.9-33.2,33.2-33.2c18.3,0,33.2,14.9,33.2,33.2
				C1129.7,194.3,1114.8,209.2,1096.5,209.2z M1096.5,149c-14.9,0-26.9,12.1-26.9,26.9c0,14.9,12.1,26.9,26.9,26.9
				c14.9,0,26.9-12.1,26.9-26.9C1123.5,161.1,1111.4,149,1096.5,149z"/>
		</g>
		<g>
			<path fill="#F1F2F2" d="M1070.8,381.9c0,57.5-46.6,104.1-104.1,104.1c-57.5,0-104.1-46.6-104.1-104.1
				c0-57.5,46.6-104.1,104.1-104.1C1024.1,277.8,1070.8,324.4,1070.8,381.9z"/>
			<path d="M966.6,489.2c-59.2,0-107.3-48.1-107.3-107.3s48.1-107.3,107.3-107.3c59.2,0,107.3,48.1,107.3,107.3
				S1025.8,489.2,966.6,489.2z M966.6,280.9c-55.7,0-101,45.3-101,101c0,55.7,45.3,101,101,101c55.7,0,101-45.3,101-101
				C1067.6,326.2,1022.3,280.9,966.6,280.9z"/>
		</g>
		<g>
			<g>
				<path fill="#FFFFFF" d="M966.6,265.1c-24.8,0-44.9,20.1-44.9,44.9c0,24.8,20.1,44.9,44.9,44.9c24.8,0,44.9-20.1,44.9-44.9
					C1011.5,285.2,991.4,265.1,966.6,265.1z"/>
				<path d="M966.6,358c-26.5,0-48-21.5-48-48s21.5-48,48-48c26.5,0,48,21.5,48,48S993.1,358,966.6,358z M966.6,268.2
					c-23,0-41.7,18.7-41.7,41.7c0,23,18.7,41.7,41.7,41.7s41.7-18.7,41.7-41.7C1008.4,286.9,989.6,268.2,966.6,268.2z"/>
			</g>
			<g>
				<path fill="#A4D758" d="M966.6,234.8c-41.7,0-75.5,33.8-75.5,75.5c0,13.2,3.4,25.5,9.3,36.3l0.1,0.2c0.7,1.3,1.5,2.7,2.4,4
					l63.7,106.6l63.7-106.6c0.8-1.3,1.6-2.6,2.4-4l0.1-0.2c5.9-10.8,9.3-23.2,9.3-36.3C1042.1,268.6,1008.3,234.8,966.6,234.8z
					 M966.6,354.8c-24.8,0-44.9-20.1-44.9-44.9c0-24.8,20.1-44.9,44.9-44.9c24.8,0,44.9,20.1,44.9,44.9
					C1011.5,334.8,991.4,354.8,966.6,354.8z"/>
				<path d="M966.6,460.5c-1.1,0-2.1-0.6-2.7-1.5l-63.7-106.6c-0.8-1.3-1.6-2.7-2.4-4.1c-6.5-11.7-9.8-24.8-9.8-38
					c0-43.3,35.3-78.6,78.6-78.6c43.3,0,78.6,35.3,78.6,78.6c0,13.2-3.4,26.3-9.7,37.8c-0.9,1.6-1.7,3-2.6,4.3L969.3,459
					C968.8,459.9,967.7,460.5,966.6,460.5z M966.6,238c-39.9,0-72.3,32.4-72.3,72.3c0,12.2,3.1,24.2,8.9,34.8c0.8,1.5,1.6,2.7,2.4,4
					l61,102.1l61-102.1c0.8-1.3,1.6-2.6,2.3-3.9c5.9-10.8,9-22.8,9-35C1038.9,270.4,1006.5,238,966.6,238z M966.6,358
					c-26.5,0-48-21.5-48-48s21.5-48,48-48c26.5,0,48,21.5,48,48S993.1,358,966.6,358z M966.6,268.2c-23,0-41.7,18.7-41.7,41.7
					c0,23,18.7,41.7,41.7,41.7s41.7-18.7,41.7-41.7C1008.4,286.9,989.6,268.2,966.6,268.2z"/>
			</g>
		</g>
		<g>
			<path d="M1111.5,514.6H829.6c-1.7,0-3.1-1.4-3.1-3.1s1.4-3.1,3.1-3.1h281.9c1.7,0,3.1,1.4,3.1,3.1S1113.2,514.6,1111.5,514.6z"/>
		</g>
	</g>
	<g>
		<g>
			<rect x="586.8" y="245" fill="#FFFFFF" width="377.3" height="385.7"/>
			<path d="M964.1,633.8H586.8c-1.7,0-3.1-1.4-3.1-3.1V245c0-1.7,1.4-3.1,3.1-3.1h377.3c1.7,0,3.1,1.4,3.1,3.1v385.7
				C967.2,632.4,965.8,633.8,964.1,633.8z M589.9,627.5h371V248.1h-371V627.5z"/>
		</g>
		<g>
			<rect x="698.6" y="520.1" fill="#FF926B" width="153.1" height="58"/>
			<path d="M851.7,581.2H698.6c-1.7,0-3.1-1.4-3.1-3.1v-58c0-1.7,1.4-3.1,3.1-3.1h153.1c1.7,0,3.1,1.4,3.1,3.1v58
				C854.9,579.8,853.5,581.2,851.7,581.2z M701.8,575h146.8v-51.7H701.8V575z"/>
		</g>
		<g>
			<g>
				<rect x="586.8" y="175.9" fill="#35DEFF" width="377.3" height="69"/>
				<path fill="#231F20" d="M964.1,248.1H586.8c-1.7,0-3.1-1.4-3.1-3.1v-69c0-1.7,1.4-3.1,3.1-3.1h377.3c1.7,0,3.1,1.4,3.1,3.1v69
					C967.2,246.7,965.8,248.1,964.1,248.1z M589.9,241.8h371v-62.7h-371V241.8z"/>
			</g>
			<g>
				<rect x="622.1" y="307" fill="#FFFFFF" width="58.5" height="44.6"/>
				<path d="M680.6,354.8h-58.5c-1.7,0-3.1-1.4-3.1-3.1V307c0-1.7,1.4-3.1,3.1-3.1h58.5c1.7,0,3.1,1.4,3.1,3.1v44.6
					C683.8,353.4,682.3,354.8,680.6,354.8z M625.2,348.5h52.3v-38.3h-52.3V348.5z"/>
			</g>
			<g>
				<rect x="704.8" y="307" fill="#FFFFFF" width="58.5" height="44.6"/>
				<path d="M763.3,354.8h-58.5c-1.7,0-3.1-1.4-3.1-3.1V307c0-1.7,1.4-3.1,3.1-3.1h58.5c1.7,0,3.1,1.4,3.1,3.1v44.6
					C766.5,353.4,765.1,354.8,763.3,354.8z M707.9,348.5h52.2v-38.3h-52.2V348.5z"/>
			</g>
			<g>
				<rect x="787.5" y="307" fill="#F1F2F2" width="58.5" height="44.6"/>
				<path d="M846.1,354.8h-58.5c-1.7,0-3.1-1.4-3.1-3.1V307c0-1.7,1.4-3.1,3.1-3.1h58.5c1.7,0,3.1,1.4,3.1,3.1v44.6
					C849.2,353.4,847.8,354.8,846.1,354.8z M790.7,348.5h52.2v-38.3h-52.2V348.5z"/>
			</g>
			<g>
				<rect x="870.3" y="307" fill="#F1F2F2" width="58.5" height="44.6"/>
				<path d="M928.8,354.8h-58.5c-1.7,0-3.1-1.4-3.1-3.1V307c0-1.7,1.4-3.1,3.1-3.1h58.5c1.7,0,3.1,1.4,3.1,3.1v44.6
					C932,353.4,930.5,354.8,928.8,354.8z M873.4,348.5h52.3v-38.3h-52.3V348.5z"/>
			</g>
			<g>
				<path fill="#FFFFFF" d="M637,210.4c0,8.1-6.5,14.6-14.6,14.6c-8.1,0-14.6-6.5-14.6-14.6c0-8.1,6.6-14.6,14.6-14.6
					C630.5,195.8,637,202.4,637,210.4z"/>
				<path d="M622.4,228.2c-9.8,0-17.8-8-17.8-17.8c0-9.8,8-17.8,17.8-17.8c9.8,0,17.8,8,17.8,17.8
					C640.2,220.3,632.2,228.2,622.4,228.2z M622.4,199c-6.3,0-11.5,5.2-11.5,11.5s5.2,11.5,11.5,11.5c6.3,0,11.5-5.2,11.5-11.5
					S628.7,199,622.4,199z"/>
			</g>
			<g>
				<path fill="#FFFFFF" d="M684.7,210.4c0,8.1-6.5,14.6-14.6,14.6c-8.1,0-14.6-6.5-14.6-14.6c0-8.1,6.6-14.6,14.6-14.6
					C678.2,195.8,684.7,202.4,684.7,210.4z"/>
				<path d="M670.1,228.2c-9.8,0-17.8-8-17.8-17.8c0-9.8,8-17.8,17.8-17.8s17.8,8,17.8,17.8C687.9,220.3,679.9,228.2,670.1,228.2z
					 M670.1,199c-6.3,0-11.5,5.2-11.5,11.5s5.2,11.5,11.5,11.5s11.5-5.2,11.5-11.5S676.4,199,670.1,199z"/>
			</g>
			<g>
				<path d="M882.1,403.3H622.4c-1.7,0-3.1-1.4-3.1-3.1s1.4-3.1,3.1-3.1h259.7c1.7,0,3.1,1.4,3.1,3.1S883.8,403.3,882.1,403.3z"/>
			</g>
			<g>
				<path d="M816.8,461.3H622.4c-1.7,0-3.1-1.4-3.1-3.1s1.4-3.1,3.1-3.1h194.4c1.7,0,3.1,1.4,3.1,3.1S818.5,461.3,816.8,461.3z"/>
			</g>
		</g>
	</g>
	<g>
		<g>
			<rect x="411.7" y="406.7" fill="#FFFFFF" width="377.3" height="328.2"/>
			<path d="M789,738H411.7c-1.7,0-3.1-1.4-3.1-3.1V406.7c0-1.7,1.4-3.1,3.1-3.1H789c1.7,0,3.1,1.4,3.1,3.1v328.2
				C792.1,736.6,790.7,738,789,738z M414.8,731.7h371V409.8h-371V731.7z"/>
		</g>
		<g>
			<rect x="411.7" y="342.9" fill="#BCBEC0" width="377.3" height="63.8"/>
			<path d="M789,409.8H411.7c-1.7,0-3.1-1.4-3.1-3.1v-63.8c0-1.7,1.4-3.1,3.1-3.1H789c1.7,0,3.1,1.4,3.1,3.1v63.8
				C792.1,408.4,790.7,409.8,789,409.8z M414.8,403.5h371V346h-371V403.5z"/>
		</g>
		<g>
			<rect x="411.7" y="280.2" fill="#FF926B" width="377.3" height="62.7"/>
			<path d="M789,346H411.7c-1.7,0-3.1-1.4-3.1-3.1v-62.7c0-1.7,1.4-3.1,3.1-3.1H789c1.7,0,3.1,1.4,3.1,3.1v62.7
				C792.1,344.6,790.7,346,789,346z M414.8,339.8h371v-56.4h-371V339.8z"/>
		</g>
	</g>
	<g>
		<rect x="432" y="296.1" fill="#FFFFFF" width="172.3" height="30.8"/>
		<path d="M604.3,330.1H432c-1.7,0-3.1-1.4-3.1-3.1v-30.8c0-1.7,1.4-3.1,3.1-3.1h172.3c1.7,0,3.1,1.4,3.1,3.1V327
			C607.5,328.7,606.1,330.1,604.3,330.1z M435.1,323.8h166v-24.6h-166V323.8z"/>
	</g>
	<g>
		<path d="M630.9,330.1c-1.7,0-3.1-1.4-3.1-3.1v-30.8c0-1.7,1.4-3.1,3.1-3.1c1.7,0,3.1,1.4,3.1,3.1V327
			C634,328.7,632.6,330.1,630.9,330.1z"/>
	</g>
	<g>
		<path d="M655.5,330.1c-1.7,0-3.1-1.4-3.1-3.1v-30.8c0-1.7,1.4-3.1,3.1-3.1s3.1,1.4,3.1,3.1V327
			C658.6,328.7,657.2,330.1,655.5,330.1z"/>
	</g>
	<g>
		<rect x="500.1" y="496.4" fill="#FFE675" width="200.4" height="44.1"/>
		<path fill="#231F20" d="M700.5,543.6H500.1c-1.7,0-3.1-1.4-3.1-3.1v-44.1c0-1.7,1.4-3.1,3.1-3.1h200.4c1.7,0,3.1,1.4,3.1,3.1v44.1
			C703.7,542.2,702.3,543.6,700.5,543.6z M503.3,537.3h194.1v-37.8H503.3V537.3z"/>
	</g>
	<g>
		<rect x="500.1" y="577.6" fill="#FFE675" width="200.4" height="44.1"/>
		<path fill="#231F20" d="M700.5,624.8H500.1c-1.7,0-3.1-1.4-3.1-3.1v-44.1c0-1.7,1.4-3.1,3.1-3.1h200.4c1.7,0,3.1,1.4,3.1,3.1v44.1
			C703.7,623.4,702.3,624.8,700.5,624.8z M503.3,618.5h194.1v-37.8H503.3V618.5z"/>
	</g>
	<g>
		<path d="M737.1,705c-10.4,0-19-8.5-19-19c0-10.4,8.5-18.9,19-18.9c10.4,0,18.9,8.5,18.9,18.9C756.1,696.5,747.6,705,737.1,705z
			 M737.1,673.4c-7,0-12.7,5.7-12.7,12.7c0,7,5.7,12.7,12.7,12.7c7,0,12.7-5.7,12.7-12.7C749.8,679.1,744.1,673.4,737.1,673.4z"/>
	</g>
	<g>
		<path d="M682.4,705c-10.4,0-18.9-8.5-18.9-19c0-10.4,8.5-18.9,18.9-18.9c10.4,0,18.9,8.5,18.9,18.9
			C701.3,696.5,692.8,705,682.4,705z M682.4,673.4c-7,0-12.7,5.7-12.7,12.7c0,7,5.7,12.7,12.7,12.7c7,0,12.7-5.7,12.7-12.7
			C695,679.1,689.3,673.4,682.4,673.4z"/>
	</g>
	<g>
		<g>
			<g>
				<rect x="279.1" y="421.3" fill="#A4D758" width="377.3" height="69"/>
				<path d="M656.4,493.4H279.1c-1.7,0-3.1-1.4-3.1-3.1v-69c0-1.7,1.4-3.1,3.1-3.1h377.3c1.7,0,3.1,1.4,3.1,3.1v69
					C659.5,492,658.1,493.4,656.4,493.4z M282.2,487.1h371v-62.7h-371V487.1z"/>
			</g>
			<g>
				<rect x="279.1" y="490.3" fill="#FFFFFF" width="377.3" height="385.7"/>
				<path d="M656.4,879.1H279.1c-1.7,0-3.1-1.4-3.1-3.1V490.3c0-1.7,1.4-3.1,3.1-3.1h377.3c1.7,0,3.1,1.4,3.1,3.1V876
					C659.5,877.7,658.1,879.1,656.4,879.1z M282.2,872.9h371V493.4h-371V872.9z"/>
			</g>
		</g>
		<g>
			<rect x="392.8" y="525.1" fill="#FFE675" width="156.1" height="156.1"/>
			<path fill="#231F20" d="M548.9,684.4H392.8c-1.7,0-3.1-1.4-3.1-3.1V525.1c0-1.7,1.4-3.1,3.1-3.1h156.1c1.7,0,3.1,1.4,3.1,3.1
				v156.1C552.1,683,550.7,684.4,548.9,684.4z M396,678.1h149.8V528.3H396V678.1z"/>
		</g>
		<g>
			<path d="M621.2,731.8H313c-1.7,0-3.1-1.4-3.1-3.1s1.4-3.1,3.1-3.1h308.2c1.7,0,3.1,1.4,3.1,3.1S623,731.8,621.2,731.8z"/>
		</g>
		<g>
			<path d="M429.4,772.9H313c-1.7,0-3.1-1.4-3.1-3.1s1.4-3.1,3.1-3.1h116.4c1.7,0,3.1,1.4,3.1,3.1S431.2,772.9,429.4,772.9z"/>
		</g>
		<g>
			<path d="M621.2,772.9h-138c-1.7,0-3.1-1.4-3.1-3.1s1.4-3.1,3.1-3.1h138c1.7,0,3.1,1.4,3.1,3.1S623,772.9,621.2,772.9z"/>
		</g>
		<g>
			<path d="M511.7,816.8H313c-1.7,0-3.1-1.4-3.1-3.1s1.4-3.1,3.1-3.1h198.6c1.7,0,3.1,1.4,3.1,3.1S513.4,816.8,511.7,816.8z"/>
		</g>
		<g>
			<path fill="#FFFFFF" d="M492.2,581.8c0,11.8-9.5,21.3-21.3,21.3l0,0c-11.8,0-21.3-9.6-21.3-21.3v-13.8c0-11.8,9.5-21.3,21.3-21.3
				l0,0c11.8,0,21.3,9.6,21.3,21.3V581.8z"/>
			<path d="M470.9,606.3c-13.5,0-24.5-11-24.5-24.5v-13.8c0-13.5,11-24.5,24.5-24.5c13.5,0,24.5,11,24.5,24.5v13.8
				C495.4,595.3,484.4,606.3,470.9,606.3z M470.9,549.9c-10,0-18.2,8.2-18.2,18.2v13.8c0,10,8.2,18.2,18.2,18.2
				c10,0,18.2-8.2,18.2-18.2v-13.8C489.1,558,480.9,549.9,470.9,549.9z"/>
		</g>
		<g>
			<path fill="#BCBEC0" d="M529.4,681.2v-32.4c0,0,2.1-28.6-23.3-32.1h-10.8l-24.4,20.9l-24.4-20.9h-10.8
				c-25.4,3.5-23.3,32.1-23.3,32.1v32.4"/>
			<path d="M529.4,684.4c-1.7,0-3.1-1.4-3.1-3.1v-32.4c0.1-1.3,1.5-25.9-20.6-28.9l-9.2,0l-23.5,20.1c-1.2,1-2.9,1-4.1,0l-23.5-20.1
				h-9.6c-21.8,3-20.3,27.6-20.2,28.7l0,32.6c0,1.7-1.4,3.1-3.1,3.1c-1.7,0-3.1-1.4-3.1-3.1v-32.4c-0.8-10.7,3.6-32.1,26.1-35.2
				l11.2,0c0.7,0,1.5,0.3,2,0.8l22.3,19.1l22.3-19.1c0.6-0.5,1.3-0.8,2-0.8h10.8c22.9,3.1,27.3,24.5,26.5,35.4l0,32.2
				C532.6,683,531.2,684.4,529.4,684.4z"/>
		</g>
		<g>
			<path d="M500,684.4c-1.7,0-3.1-1.4-3.1-3.1v-25.1c0-1.7,1.4-3.1,3.1-3.1c1.7,0,3.1,1.4,3.1,3.1v25.1
				C503.1,683,501.7,684.4,500,684.4z"/>
		</g>
		<g>
			<path d="M441.8,684.4c-1.7,0-3.1-1.4-3.1-3.1v-25.1c0-1.7,1.4-3.1,3.1-3.1s3.1,1.4,3.1,3.1v25.1
				C444.9,683,443.5,684.4,441.8,684.4z"/>
		</g>
		<g>
			<path fill="#FFFFFF" d="M327.7,455.8c0,8.1-6.5,14.6-14.6,14.6c-8.1,0-14.6-6.5-14.6-14.6c0-8.1,6.6-14.6,14.6-14.6
				C321.1,441.2,327.7,447.7,327.7,455.8z"/>
			<path d="M313,473.6c-9.8,0-17.8-8-17.8-17.8c0-9.8,8-17.8,17.8-17.8c9.8,0,17.8,8,17.8,17.8C330.8,465.6,322.8,473.6,313,473.6z
				 M313,444.3c-6.3,0-11.5,5.2-11.5,11.5c0,6.3,5.2,11.5,11.5,11.5c6.3,0,11.5-5.2,11.5-11.5C324.5,449.5,319.4,444.3,313,444.3z"
				/>
		</g>
		<g>
			<path fill="#FFFFFF" d="M375.4,455.8c0,8.1-6.5,14.6-14.6,14.6c-8.1,0-14.6-6.5-14.6-14.6c0-8.1,6.6-14.6,14.6-14.6
				C368.8,441.2,375.4,447.7,375.4,455.8z"/>
			<path d="M360.7,473.6c-9.8,0-17.8-8-17.8-17.8c0-9.8,8-17.8,17.8-17.8c9.8,0,17.8,8,17.8,17.8
				C378.5,465.6,370.5,473.6,360.7,473.6z M360.7,444.3c-6.3,0-11.5,5.2-11.5,11.5c0,6.3,5.2,11.5,11.5,11.5
				c6.3,0,11.5-5.2,11.5-11.5C372.2,449.5,367.1,444.3,360.7,444.3z"/>
		</g>
	</g>
	<g>
		<g>
			<path d="M279.1,850.1h-22c-1.7,0-3.1-1.4-3.1-3.1s1.4-3.1,3.1-3.1h22c1.7,0,3.1,1.4,3.1,3.1S280.8,850.1,279.1,850.1z"/>
		</g>
		<g>
			<path d="M227.7,850.1h-25.8c-1.7,0-3.1-1.4-3.1-3.1s1.4-3.1,3.1-3.1h25.8c1.7,0,3.1,1.4,3.1,3.1S229.4,850.1,227.7,850.1z"/>
		</g>
		<g>
			<path d="M172.5,850.1h-22c-1.7,0-3.1-1.4-3.1-3.1v-22c0-1.7,1.4-3.1,3.1-3.1c1.7,0,3.1,1.4,3.1,3.1v18.9h18.9
				c1.7,0,3.1,1.4,3.1,3.1S174.2,850.1,172.5,850.1z"/>
		</g>
		<g>
			<path d="M150.5,780.7c-1.7,0-3.1-1.4-3.1-3.1v-41.4c0-1.7,1.4-3.1,3.1-3.1c1.7,0,3.1,1.4,3.1,3.1v41.4
				C153.6,779.3,152.2,780.7,150.5,780.7z M150.5,691.9c-1.7,0-3.1-1.4-3.1-3.1v-41.4c0-1.7,1.4-3.1,3.1-3.1c1.7,0,3.1,1.4,3.1,3.1
				v41.4C153.6,690.5,152.2,691.9,150.5,691.9z M150.5,603.1c-1.7,0-3.1-1.4-3.1-3.1v-41.4c0-1.7,1.4-3.1,3.1-3.1
				c1.7,0,3.1,1.4,3.1,3.1V600C153.6,601.7,152.2,603.1,150.5,603.1z M150.5,514.3c-1.7,0-3.1-1.4-3.1-3.1v-41.4
				c0-1.7,1.4-3.1,3.1-3.1c1.7,0,3.1,1.4,3.1,3.1v41.4C153.6,512.9,152.2,514.3,150.5,514.3z M150.5,425.5c-1.7,0-3.1-1.4-3.1-3.1
				v-41.4c0-1.7,1.4-3.1,3.1-3.1c1.7,0,3.1,1.4,3.1,3.1v41.4C153.6,424.1,152.2,425.5,150.5,425.5z"/>
		</g>
		<g>
			<path d="M150.5,336.7c-1.7,0-3.1-1.4-3.1-3.1v-22c0-1.7,1.4-3.1,3.1-3.1c1.7,0,3.1,1.4,3.1,3.1v22
				C153.6,335.3,152.2,336.7,150.5,336.7z"/>
		</g>
	</g>
	<g>
		<g>
			<path d="M412.3,379.1h-22c-1.7,0-3.1-1.4-3.1-3.1c0-1.7,1.4-3.1,3.1-3.1h22c1.7,0,3.1,1.4,3.1,3.1
				C415.5,377.7,414.1,379.1,412.3,379.1z"/>
		</g>
		<g>
			<path d="M349,379.1h-36.2c-1.7,0-3.1-1.4-3.1-3.1c0-1.7,1.4-3.1,3.1-3.1H349c1.7,0,3.1,1.4,3.1,3.1
				C352.1,377.7,350.7,379.1,349,379.1z"/>
		</g>
		<g>
			<path d="M271.5,379.1h-22c-1.7,0-3.1-1.4-3.1-3.1v-22c0-1.7,1.4-3.1,3.1-3.1c1.7,0,3.1,1.4,3.1,3.1v18.9h18.9
				c1.7,0,3.1,1.4,3.1,3.1C274.6,377.7,273.2,379.1,271.5,379.1z"/>
		</g>
		<g>
			<path d="M249.5,336.7c-1.7,0-3.1-1.4-3.1-3.1v-22c0-1.7,1.4-3.1,3.1-3.1c1.7,0,3.1,1.4,3.1,3.1v22
				C252.6,335.3,251.2,336.7,249.5,336.7z"/>
		</g>
	</g>
	<g>
		<g>
			<path d="M586.8,213.6h-22c-1.7,0-3.1-1.4-3.1-3.1s1.4-3.1,3.1-3.1h22c1.7,0,3.1,1.4,3.1,3.1S588.5,213.6,586.8,213.6z"/>
		</g>
		<g>
			<path d="M533.9,213.6h-27.1c-1.7,0-3.1-1.4-3.1-3.1s1.4-3.1,3.1-3.1h27.1c1.7,0,3.1,1.4,3.1,3.1S535.6,213.6,533.9,213.6z"/>
		</g>
		<g>
			<path d="M475.8,213.6h-22c-1.7,0-3.1-1.4-3.1-3.1s1.4-3.1,3.1-3.1h22c1.7,0,3.1,1.4,3.1,3.1S477.6,213.6,475.8,213.6z"/>
		</g>
	</g>
	<g>
		<g>
			<path d="M778,132h-22c-1.7,0-3.1-1.4-3.1-3.1s1.4-3.1,3.1-3.1h22c1.7,0,3.1,1.4,3.1,3.1S779.7,132,778,132z"/>
		</g>
		<g>
			<path d="M697,132h-51.6c-1.7,0-3.1-1.4-3.1-3.1s1.4-3.1,3.1-3.1H697c1.7,0,3.1,1.4,3.1,3.1S698.7,132,697,132z M586.4,132h-51.6
				c-1.7,0-3.1-1.4-3.1-3.1s1.4-3.1,3.1-3.1h51.6c1.7,0,3.1,1.4,3.1,3.1S588.2,132,586.4,132z"/>
		</g>
		<g>
			<path d="M475.8,132h-22c-1.7,0-3.1-1.4-3.1-3.1s1.4-3.1,3.1-3.1h22c1.7,0,3.1,1.4,3.1,3.1S477.6,132,475.8,132z"/>
		</g>
	</g>
	<g>
		<path fill="#35DEFF" d="M921.7,769.7c0,30.5-24.7,55.2-55.2,55.2c-30.5,0-55.2-24.7-55.2-55.2c0-30.5,24.7-55.2,55.2-55.2
			C897,714.5,921.7,739.2,921.7,769.7z"/>
		<path fill="#231F20" d="M866.5,828.1c-32.2,0-58.4-26.2-58.4-58.4c0-32.2,26.2-58.4,58.4-58.4c32.2,0,58.4,26.2,58.4,58.4
			C924.9,801.9,898.7,828.1,866.5,828.1z M866.5,717.6c-28.7,0-52.1,23.4-52.1,52.1c0,28.7,23.4,52.1,52.1,52.1
			c28.7,0,52.1-23.4,52.1-52.1C918.6,741,895.2,717.6,866.5,717.6z"/>
	</g>
	<g>
		<path fill="#FF926B" d="M1085.5,769.7c0,30.5-24.7,55.2-55.2,55.2S975,800.2,975,769.7c0-30.5,24.7-55.2,55.2-55.2
			S1085.5,739.2,1085.5,769.7z"/>
		<path d="M1030.3,828.1c-32.2,0-58.4-26.2-58.4-58.4c0-32.2,26.2-58.4,58.4-58.4c32.2,0,58.4,26.2,58.4,58.4
			C1088.6,801.9,1062.4,828.1,1030.3,828.1z M1030.3,717.6c-28.7,0-52.1,23.4-52.1,52.1c0,28.7,23.4,52.1,52.1,52.1
			c28.7,0,52.1-23.4,52.1-52.1C1082.3,741,1059,717.6,1030.3,717.6z"/>
	</g>
	<g>
		<path fill="#FFE675" d="M1249.2,769.7c0,30.5-24.7,55.2-55.2,55.2s-55.2-24.7-55.2-55.2c0-30.5,24.7-55.2,55.2-55.2
			S1249.2,739.2,1249.2,769.7z"/>
		<path fill="#231F20" d="M1194,828.1c-32.2,0-58.4-26.2-58.4-58.4c0-32.2,26.2-58.4,58.4-58.4s58.4,26.2,58.4,58.4
			C1252.4,801.9,1226.2,828.1,1194,828.1z M1194,717.6c-28.7,0-52.1,23.4-52.1,52.1c0,28.7,23.4,52.1,52.1,52.1s52.1-23.4,52.1-52.1
			C1246.1,741,1222.7,717.6,1194,717.6z"/>
	</g>
	<g>
		<g>
			<path d="M1177.3,132h-22c-1.7,0-3.1-1.4-3.1-3.1s1.4-3.1,3.1-3.1h22c1.7,0,3.1,1.4,3.1,3.1S1179,132,1177.3,132z"/>
		</g>
		<g>
			<path d="M1253.6,154c-1.7,0-3.1-1.4-3.1-3.1V132h-18.9c-1.7,0-3.1-1.4-3.1-3.1s1.4-3.1,3.1-3.1h22c1.7,0,3.1,1.4,3.1,3.1v22
				C1256.8,152.6,1255.4,154,1253.6,154z"/>
		</g>
		<g>
			<path d="M1253.6,598.7c-1.7,0-3.1-1.4-3.1-3.1V554c0-1.7,1.4-3.1,3.1-3.1s3.1,1.4,3.1,3.1v41.5
				C1256.8,597.3,1255.4,598.7,1253.6,598.7z M1253.6,509.7c-1.7,0-3.1-1.4-3.1-3.1v-41.5c0-1.7,1.4-3.1,3.1-3.1s3.1,1.4,3.1,3.1
				v41.5C1256.8,508.3,1255.4,509.7,1253.6,509.7z M1253.6,420.8c-1.7,0-3.1-1.4-3.1-3.1v-41.5c0-1.7,1.4-3.1,3.1-3.1
				s3.1,1.4,3.1,3.1v41.5C1256.8,419.4,1255.4,420.8,1253.6,420.8z M1253.6,331.8c-1.7,0-3.1-1.4-3.1-3.1v-41.5
				c0-1.7,1.4-3.1,3.1-3.1s3.1,1.4,3.1,3.1v41.5C1256.8,330.4,1255.4,331.8,1253.6,331.8z M1253.6,242.9c-1.7,0-3.1-1.4-3.1-3.1
				v-41.5c0-1.7,1.4-3.1,3.1-3.1s3.1,1.4,3.1,3.1v41.5C1256.8,241.5,1255.4,242.9,1253.6,242.9z"/>
		</g>
		<g>
			<path d="M1253.6,668.1c-1.7,0-3.1-1.4-3.1-3.1v-22c0-1.7,1.4-3.1,3.1-3.1s3.1,1.4,3.1,3.1v22
				C1256.8,666.7,1255.4,668.1,1253.6,668.1z"/>
		</g>
	</g>
	<g>
		<g>
			<path d="M986.1,606.3h-22c-1.7,0-3.1-1.4-3.1-3.1s1.4-3.1,3.1-3.1h22c1.7,0,3.1,1.4,3.1,3.1S987.8,606.3,986.1,606.3z"/>
		</g>
		<g>
			<path d="M1053.5,606.3h-31.5c-1.7,0-3.1-1.4-3.1-3.1s1.4-3.1,3.1-3.1h31.5c1.7,0,3.1,1.4,3.1,3.1S1055.3,606.3,1053.5,606.3z"/>
		</g>
		<g>
			<path d="M1111.5,628.3c-1.7,0-3.1-1.4-3.1-3.1v-18.9h-18.9c-1.7,0-3.1-1.4-3.1-3.1s1.4-3.1,3.1-3.1h22c1.7,0,3.1,1.4,3.1,3.1v22
				C1114.6,626.9,1113.2,628.3,1111.5,628.3z"/>
		</g>
		<g>
			<path d="M1111.5,668.1c-1.7,0-3.1-1.4-3.1-3.1v-22c0-1.7,1.4-3.1,3.1-3.1s3.1,1.4,3.1,3.1v22
				C1114.6,666.7,1113.2,668.1,1111.5,668.1z"/>
		</g>
	</g>
	<g>
		<polygon fill="#FFFFFF" points="847.5,741.5 896.5,769.7 847.5,798 		"/>
		<path d="M847.5,801.2c-0.5,0-1.1-0.1-1.6-0.4c-1-0.6-1.6-1.6-1.6-2.7v-56.5c0-1.1,0.6-2.2,1.6-2.7c1-0.6,2.2-0.6,3.1,0l49,28.3
			c1,0.6,1.6,1.6,1.6,2.7s-0.6,2.2-1.6,2.7l-49,28.3C848.6,801,848,801.2,847.5,801.2z M850.6,746.9v45.7l39.5-22.8L850.6,746.9z"/>
	</g>
	<g>
		<g>
			<circle fill="#FFFFFF" cx="1017.2" cy="784.9" r="15.9"/>
			<path d="M1017.2,803.9c-10.5,0-19-8.5-19-19c0-10.5,8.5-19,19-19c10.5,0,19,8.5,19,19C1036.2,795.4,1027.6,803.9,1017.2,803.9z
				 M1017.2,772.1c-7,0-12.7,5.7-12.7,12.7c0,7,5.7,12.7,12.7,12.7c7,0,12.7-5.7,12.7-12.7C1029.9,777.8,1024.2,772.1,1017.2,772.1z
				"/>
		</g>
		<g>
			<path d="M1048,788c-1.7,0-3.1-1.4-3.1-3.1c0-15.3-12.4-27.7-27.7-27.7c-1.7,0-3.1-1.4-3.1-3.1c0-1.7,1.4-3.1,3.1-3.1
				c18.7,0,34,15.2,34,34C1051.1,786.6,1049.7,788,1048,788z"/>
		</g>
		<g>
			<path d="M1063.3,788c-1.7,0-3.1-1.4-3.1-3.1c0-23.7-19.3-43-43-43c-1.7,0-3.1-1.4-3.1-3.1s1.4-3.1,3.1-3.1
				c27.2,0,49.3,22.1,49.3,49.3C1066.5,786.6,1065,788,1063.3,788z"/>
		</g>
	</g>
	<g>
		<path fill="#FFFFFF" d="M1194,727.1c-15.8,0-28.6,12.7-29,28.4c0,0.2,0,0.4,0,0.6c0,0.8,0,1.6,0.1,2.4c0.4,4.7,1.9,9.1,4.2,12.8
			c0.1,0.2,0.2,0.4,0.3,0.5l4.3,7.5l14.1,24.4l5.8,10l0.1,0.2l5.9-10.2l12.7-22l5.8-10c2.9-4.5,4.7-9.9,4.7-15.8
			C1223,740.1,1210,727.1,1194,727.1z"/>
		<path d="M1194,817.1C1194,817.1,1194,817.1,1194,817.1c-1.2,0-2.2-0.6-2.8-1.6l-5.8-10.1l-18.4-31.9c-2.9-4.7-4.6-9.7-5-14.7
			c-0.1-0.9-0.1-1.8-0.1-2.6c0,0,0-0.6,0-0.6c0.3-17.3,14.7-31.5,32.1-31.5c17.7,0,32.1,14.4,32.1,32.1c0,6.2-1.8,12.3-5.2,17.5
			l-24.2,42C1196.1,816.5,1195.1,817.1,1194,817.1z M1194,730.3c-14,0-25.5,11.4-25.8,25.3c0,1.2,0,1.9,0.1,2.6
			c0.3,4,1.6,8,3.8,11.4c0,0,0.4,0.6,0.4,0.6l21.6,37.4l21.6-37.4c2.8-4.3,4.2-9.2,4.2-14.2C1219.8,741.8,1208.2,730.3,1194,730.3z"
			/>
	</g>
	<g>
		<circle fill="#FFE675" cx="1194" cy="756.4" r="16.1"/>
		<path fill="#231F20" d="M1194,775.6c-10.6,0-19.2-8.6-19.2-19.2c0-10.6,8.6-19.2,19.2-19.2c10.6,0,19.2,8.6,19.2,19.2
			C1213.2,767,1204.6,775.6,1194,775.6z M1194,743.5c-7.1,0-12.9,5.8-12.9,12.9c0,7.1,5.8,12.9,12.9,12.9s12.9-5.8,12.9-12.9
			C1206.9,749.3,1201.1,743.5,1194,743.5z"/>
	</g>
	<g>
		<polygon fill="#BCBEC0" points="348.2,171.1 269.9,171.1 269.9,170.8 210.3,136.4 150.7,170.8 150.7,177.4 218.8,177.4 218.8,233 
			150.7,233 150.7,239.6 210.3,274 269.9,239.6 269.9,239.3 348.2,239.3 		"/>
		<path d="M210.3,277.1c-0.5,0-1.1-0.1-1.6-0.4l-59.6-34.4c-1-0.6-1.6-1.6-1.6-2.7l0-6.6c0-0.8,0.3-1.6,0.9-2.2
			c0.6-0.6,1.4-0.9,2.2-0.9l64.9,0v-49.3l-64.9,0c-1.7,0-3.1-1.4-3.1-3.1v-6.6c0-1.1,0.6-2.2,1.6-2.7l59.6-34.4c1-0.6,2.2-0.6,3.1,0
			l59.5,34.3l76.9,0c1.7,0,3.1,1.4,3.1,3.1v68.1c0,0.8-0.3,1.6-0.9,2.2c-0.6,0.6-1.4,0.9-2.2,0.9l0,0l-76.9,0l-59.4,34.3
			C211.4,277,210.8,277.1,210.3,277.1z M153.9,237.8l56.4,32.6l57.3-33.1c0,0,0.1-0.1,0.1-0.1c0.6-0.6,1.4-1.1,2.2-1.1l0,0l75.2,0
			v-61.8l-75.2,0c-1.1,0-2-0.5-2.6-1.3l-57-32.9l-56.4,32.6v1.6l64.9,0c1.7,0,3.1,1.4,3.1,3.1V233c0,1.7-1.4,3.1-3.1,3.1l-64.9,0
			V237.8z"/>
	</g>
	<g>
		<circle fill="#35DEFF" cx="600.3" cy="376" r="20.9"/>
		<path d="M600.3,400c-13.3,0-24.1-10.8-24.1-24.1c0-13.3,10.8-24.1,24.1-24.1c13.3,0,24.1,10.8,24.1,24.1
			C624.4,389.2,613.6,400,600.3,400z M600.3,358.2c-9.8,0-17.8,8-17.8,17.8c0,9.8,8,17.8,17.8,17.8c9.8,0,17.8-8,17.8-17.8
			C618.1,366.2,610.1,358.2,600.3,358.2z"/>
	</g>
	<g>
		<path fill="#FFFFFF" d="M419.8,206c0,33.5-27.2,60.7-60.7,60.7c-33.5,0-60.7-27.2-60.7-60.7s27.2-60.7,60.7-60.7
			C392.6,145.3,419.8,172.5,419.8,206z"/>
		<path d="M359.1,269.9c-35.2,0-63.8-28.6-63.8-63.8c0-35.2,28.6-63.8,63.8-63.8c35.2,0,63.8,28.6,63.8,63.8
			C422.9,241.2,394.3,269.9,359.1,269.9z M359.1,148.5c-31.7,0-57.5,25.8-57.5,57.5c0,31.7,25.8,57.5,57.5,57.5
			c31.7,0,57.5-25.8,57.5-57.5C416.6,174.3,390.8,148.5,359.1,148.5z"/>
	</g>
	<g>
		<path d="M348.2,162.8H320c-1.7,0-3.1-1.4-3.1-3.1c0-1.7,1.4-3.1,3.1-3.1h28.3c1.7,0,3.1,1.4,3.1,3.1
			C351.4,161.4,350,162.8,348.2,162.8z"/>
	</g>
	<g>
		<path d="M398.2,162.8h-30.8c-1.7,0-3.1-1.4-3.1-3.1c0-1.7,1.4-3.1,3.1-3.1h30.8c1.7,0,3.1,1.4,3.1,3.1
			C401.3,161.4,399.9,162.8,398.2,162.8z"/>
	</g>
	<g>
		<path d="M385.7,186.6h-82.9c-1.7,0-3.1-1.4-3.1-3.1c0-1.7,1.4-3.1,3.1-3.1h82.9c1.7,0,3.1,1.4,3.1,3.1
			C388.8,185.2,387.4,186.6,385.7,186.6z"/>
	</g>
	<g>
		<path d="M343.9,209.2h-45.5c-1.7,0-3.1-1.4-3.1-3.1c0-1.7,1.4-3.1,3.1-3.1h45.5c1.7,0,3.1,1.4,3.1,3.1
			C347,207.8,345.6,209.2,343.9,209.2z"/>
	</g>
	<g>
		<path d="M325.7,231.8h-22.9c-1.7,0-3.1-1.4-3.1-3.1s1.4-3.1,3.1-3.1h22.9c1.7,0,3.1,1.4,3.1,3.1S327.4,231.8,325.7,231.8z"/>
	</g>
	<g>
		<path d="M359.1,254.4h-40.5c-1.7,0-3.1-1.4-3.1-3.1s1.4-3.1,3.1-3.1h40.5c1.7,0,3.1,1.4,3.1,3.1S360.8,254.4,359.1,254.4z"/>
	</g>
	<g>
		<path d="M419.8,209.2h-50.5c-1.7,0-3.1-1.4-3.1-3.1c0-1.7,1.4-3.1,3.1-3.1h50.5c1.7,0,3.1,1.4,3.1,3.1
			C422.9,207.8,421.5,209.2,419.8,209.2z"/>
	</g>
	<g>
		<path d="M415.4,231.8h-67.2c-1.7,0-3.1-1.4-3.1-3.1s1.4-3.1,3.1-3.1h67.2c1.7,0,3.1,1.4,3.1,3.1S417.1,231.8,415.4,231.8z"/>
	</g>
</g>
</svg>
